<?xml version="1.0" encoding="utf-8"?>
<!-- Generator: Adobe Illustrator 24.2.0, SVG Export Plug-In . SVG Version: 6.00 Build 0)  -->
<svg version="1.1" id="圖層_1" xmlns="http://www.w3.org/2000/svg" xmlns:xlink="http://www.w3.org/1999/xlink" x="0px" y="0px"
	 viewBox="0 0 1200 663" style="enable-background:new 0 0 1200 663;" xml:space="preserve">
<style type="text/css">
	.st0{fill:#1987FA;}
	.st1{opacity:0.1;enable-background:new    ;}
	.st2{fill:#D0CDE1;}
	.st3{fill:#3F3D56;}
	.st4{fill:#2F2E41;}
	.st5{fill:#A0616A;}
</style>
<path class="st0" d="M1200,0v663H986.4c-3,0-6,0-9.1-0.1l-2.2,0c-2.4,0-4.9-0.1-7.3-0.2c-7.5-0.2-15-0.5-22.5-0.9
	c-124.9-6.5-246.5-42.6-355.9-104.3C328.8,410.5,0,476.1,0,476.1V0H1200z"/>
<polygon class="st1" points="252.4,0 188.3,44 117,92.9 109.4,98.2 51,138.2 0,173.2 0,82.6 23,66.8 27.9,63.4 51,47.5 56.2,44 
	120.3,0 "/>
<polygon class="st1" points="425,0 324,69.3 227,135.9 219.4,141.1 212.3,146 0,291.8 0,201.1 80.2,146 133,109.8 137.9,106.4 
	228.8,44 292.9,0 "/>
<path class="st2" d="M1148,334H778V87h370V334z M780,332h366V89H780V332z"/>
<rect x="860" y="191" class="st3" width="44" height="116"/>
<rect x="941" y="236" class="st3" width="44" height="71"/>
<rect x="1022" y="143" class="st3" width="44" height="164"/>
<circle class="st3" cx="963" cy="191" r="22"/>
<path class="st2" d="M325,147H50V43h275V147z M52,145h271V45H52V145z"/>
<path class="st2" d="M630,321H480v-73h150V321z M482,319h146v-69H482V319z"/>
<polygon class="st3" points="161.5,72.5 213.5,95.5 161.5,117.5 "/>
<circle class="st3" cx="521" cy="284.5" r="11"/>
<circle class="st3" cx="555" cy="284.5" r="11"/>
<circle class="st3" cx="589" cy="284.5" r="11"/>
<path class="st2" d="M553.3,168.9l-10.2,13c-16.3-23.1-35.7-41.8-57.9-55.6c-18.6-11.6-39.2-19.8-60.6-24.3
	c-37-7.9-65.6-2.6-65.9-2.5l0.7,3.6c0.3-0.1,28.1-5.2,64.4,2.5c32.9,7,79.5,26.3,116.2,78.2l-16.1,3.5c10.1,3.1,22.5,10.5,31.3,17.2
	C552.9,193.7,551.6,179.3,553.3,168.9z"/>
<path class="st2" d="M830.7,387.3c-0.2,0.2-22.6,17.8-58.3,27.8c-32.3,9.1-82.5,13.7-139.1-15.2l12.6-10.6
	c-10.4,2-24.8,1.2-35.7-0.7c7,8.5,14.8,20.7,18.2,30.7l3-16.3c25.1,12.8,51.1,20.3,77.2,22.2c4.5,0.3,9,0.5,13.4,0.5
	c17.4,0,34.8-2.4,51.6-7.2c36.4-10.3,59.2-28.3,59.5-28.5L830.7,387.3z"/>
<path class="st2" d="M278.3,362.3c0.2,0.2,22.6,17.8,58.3,27.8c32.3,9.1,82.5,13.7,139.1-15.2l-12.6-10.6c10.4,2,24.8,1.2,35.7-0.7
	c-7,8.5-14.8,20.7-18.2,30.7l-3-16.3c-25.1,12.8-51.1,20.3-77.2,22.2c-4.5,0.3-9,0.5-13.4,0.5c-17.4,0-34.8-2.4-51.6-7.2
	c-36.4-10.3-59.2-28.3-59.5-28.5L278.3,362.3z"/>
<path class="st2" d="M227.5,408.7h-154v-154h154V408.7z M75.6,406.6h149.7V256.9H75.6V406.6z"/>
<rect x="103.4" y="303.4" class="st3" width="94.1" height="8.6"/>
<rect x="103.4" y="327.4" class="st3" width="94.1" height="8.6"/>
<rect x="103.4" y="351.4" class="st3" width="94.1" height="8.6"/>
<path class="st3" d="M685.9,110.1c0-6.6,5.4-12,12-12s12,5.4,12,12s-5.4,12-12,12C691.3,122.1,685.9,116.8,685.9,110.1z
	 M687.9,110.1c0,5.5,4.5,10,10,10s10-4.5,10-10s-4.5-10-10-10C692.4,100.1,687.9,104.6,687.9,110.1z"/>
<path class="st3" d="M825.6,550.9l-17.7-18.9l18.9-17.7l17.7,18.9L825.6,550.9z M810.7,532l14.9,16l16-14.9l-14.9-16L810.7,532z"/>
<path class="st3" d="M357.6,222.9l-17.7-18.9l18.9-17.7l17.7,18.9L357.6,222.9z M342.7,204l14.9,16l16-14.9l-14.9-16L342.7,204z"/>
<circle class="st4" cx="1004" cy="383.4" r="66.9"/>
<path class="st4" d="M1093.7,663H986.4c-3,0-6,0-9.1-0.1l-2.2,0c-2.4,0-4.9-0.1-7.3-0.2l-2.4-9.4l4.8-0.8l5.7-1l54.9-9.3l45.7-7.8
	c1.4-0.2,2.9-0.2,4.3,0.2c4.1,1.1,7.1,4.7,7.4,8.9C1088.7,649.8,1090.1,657.5,1093.7,663z"/>
<ellipse transform="matrix(0.1602 -0.9871 0.9871 0.1602 430.5355 1321.8829)" class="st5" cx="992.1" cy="407.9" rx="44" ry="44"/>
<path class="st5" d="M992.1,447.3c0,0,15.4,39.4,3.1,46.3s-18.5,7.7-18.5,7.7l-13.1,22.4l-7.7,23.2l61.7,2.3l43.2-68.7
	c0,0-20.8-10.8-31.6-57.1L992.1,447.3z"/>
<path class="st2" d="M1072.8,481.6c0,0-7.9-5.2-15.1-3.4c-3.6,0.8-7,1.9-10.4,3.4c0,0-40.1,54.8-61.7,56.3c0,0-28.6,7.7-21.6-3.9
	s22.2-35.9,22.2-35.9s-27.6,6.6-27.6,15.9s-5.4,26.2-5.4,26.2s-26.2,26.2,0,57.1s16.2,58.7,16.2,58.7l115.8-20.8L1072.8,481.6z"/>
<path class="st2" d="M967.9,662.8c-7.5-0.2-15-0.5-22.5-0.9l4.5-68.7l0.9-14.3l20.8,39.4c0,0,1.9,13.8,4.3,33.3
	c0.1,1,0.3,2.1,0.4,3.2c0.3,2.6,0.7,5.4,1,8.2l-2.2,0C972.8,662.9,970.3,662.8,967.9,662.8z"/>
<circle class="st4" cx="1031.8" cy="322.5" r="27.7"/>
<path class="st4" d="M994.8,307.5c0-14.2,10.7-26.1,24.8-27.6c-1-0.1-1.9-0.1-2.9-0.1c-15.3,0-27.7,12.4-27.7,27.7
	c0,15.3,12.4,27.7,27.7,27.7c1,0,1.9-0.1,2.9-0.1C1005.5,333.6,994.8,321.7,994.8,307.5z"/>
<ellipse transform="matrix(0.2568 -0.9665 0.9665 0.2568 370.4054 1248.0236)" class="st4" cx="996.7" cy="383.2" rx="27.7" ry="46.2"/>
<path class="st2" d="M1083.2,611.9c-0.9,9.2-1.8,17.1-2.4,22.8c-0.1,0.4-0.1,0.9-0.2,1.3c-0.6,5.3-1,8.5-1,8.5l-9.2,18.5h-48.9
	c2.8-6.4,5.5-12.5,7.9-17.8c0.5-1,0.9-2,1.3-3c5.3-11.9,9.1-19.8,9.9-20.5c3.1-3.1,12.7-135.4,12.7-135.4s7.5-6.4,15.7-6.5h0
	c5.7-0.1,11.8,3,16,13.4C1091.8,510.3,1087.1,572.8,1083.2,611.9z"/>
<path class="st1" d="M955.5,600.2c0,0,17,36.1,15.7,45.8S955.5,600.2,955.5,600.2z"/>
<ellipse class="st5" cx="1039.2" cy="405.6" rx="3.9" ry="7.7"/>
</svg>
