<svg width="108" height="21" viewBox="0 0 108 21" fill="none" xmlns="http://www.w3.org/2000/svg">
<g clip-path="url(#clip0_845_7239)">
<path fill-rule="evenodd" clip-rule="evenodd" d="M15.7548 7.72437V14.355L10.0221 17.6648V20.8839L18.4586 16.0132V6.16333L15.7548 7.72437Z" fill="#FF2868"/>
<path fill-rule="evenodd" clip-rule="evenodd" d="M0 16.0131L8.43649 20.8838V17.6648L2.70375 14.355V7.72424L0 6.16333V16.0131Z" fill="#FF2868"/>
<path fill-rule="evenodd" clip-rule="evenodd" d="M9.33257 0L0.724365 4.78723L3.40263 6.39143L9.19748 3.1687L14.8763 6.57018L17.6894 5.00555L9.33257 0Z" fill="#FF2868"/>
<path fill-rule="evenodd" clip-rule="evenodd" d="M6.24634 7.40564L12.276 7.42869L12.3859 7.40564L10.2689 10.7224L6.24634 7.40564Z" fill="#FF2868"/>
<path fill-rule="evenodd" clip-rule="evenodd" d="M12.2123 13.4782L8.84808 13.4061L6.07275 13.4782L8.18978 10.1615L12.2123 13.4782Z" fill="#FF2868"/>
</g>
<path d="M31 19.7473V18.752L40.6224 5.57467H31.8963L33.4577 2.31799H46.8375V3.33761L37.1907 16.515H46.2912L44.7785 19.7473H31Z" fill="#333333"/>
<path d="M57.1858 2.31799L65.4157 19.7473H61.5625L56.5892 9.1555L51.1929 19.7473H47.2894L56.1662 2.31799H57.1858Z" fill="#333333"/>
<path d="M71.9215 2.31799C73.0902 2.31799 74.2346 2.5417 75.3029 2.98911C76.3469 3.43653 77.2676 4.05895 78.062 4.85333C78.8823 5.67359 79.5047 6.59429 79.9262 7.63825C80.398 8.70808 80.6217 9.85096 80.6217 11.0197C80.6217 12.2128 80.398 13.3572 79.9262 14.4255C79.5031 15.4695 78.8823 16.3902 78.062 17.1861C77.2661 17.982 76.3469 18.6288 75.3029 19.0503C74.2331 19.5221 73.0902 19.7458 71.9215 19.7458H68.4152V19.7214H66.9984V2.31799H71.9215ZM71.9215 16.2654C74.8053 16.2654 77.1428 13.9036 77.1428 11.0197C77.1428 8.13588 74.8053 5.79838 71.9215 5.79838H70.4788V16.2654H71.9215Z" fill="#333333"/>
<path d="M83.2957 19.723V2L86.776 3.39246V19.7215H83.2957V19.723Z" fill="#333333"/>
<path d="M107.555 8.96077V10.7261C107.555 16.1955 103.577 20 98.9017 20H98.8774C93.8797 19.9498 89.9017 15.9474 89.9504 10.9498C90.0006 6.00237 94.0289 2.02283 98.9763 2.02283H99.0508C101.165 2.04718 103.079 2.79287 104.595 4.01184L102.084 6.47413C101.189 5.85323 100.145 5.52908 99.025 5.50474H98.9747C97.5077 5.50474 96.1153 6.07694 95.0713 7.1209C94.0273 8.14051 93.4308 9.53297 93.4308 11C93.4064 12.467 93.9771 13.8838 94.9967 14.9278C96.0407 15.9976 97.4331 16.5942 98.9002 16.5942C101.436 16.5942 103.6 14.7787 104.246 12.4427H101.309L100.317 8.96229H107.555V8.96077Z" fill="#333333"/>
<defs>
<clipPath id="clip0_845_7239">
<rect width="18.5" height="21" fill="white"/>
</clipPath>
</defs>
</svg>
