<?xml version="1.0" standalone="no"?>
<!DOCTYPE svg PUBLIC "-//W3C//DTD SVG 1.1//EN" "http://www.w3.org/Graphics/SVG/1.1/DTD/svg11.dtd" >
<svg xmlns="http://www.w3.org/2000/svg">
  <metadata>Created by iconfont</metadata>
  <defs>
  <font id="iconfont" horiz-adv-x="1024">
    <font-face
      font-family="iconfont"
      font-weight="400"
      font-stretch="normal"
      units-per-em="1024"
      ascent="896"
      descent="-128"
    />
      <missing-glyph />
      
      <glyph glyph-name="very-scanner" unicode="&#59348;" d="M136 512h56c4.4 0 8 3.6 8 8V696h176c4.4 0 8 3.6 8 8v56c0 4.4-3.6 8-8 8H196c-37.6 0-68-30.4-68-68v-180c0-4.4 3.6-8 8-8zM648 696h176v-176c0-4.4 3.6-8 8-8h56c4.4 0 8 3.6 8 8V700c0 37.6-30.4 68-68 68H648c-4.4 0-8-3.6-8-8v-56c0-4.4 3.6-8 8-8zM376 72H200V248c0 4.4-3.6 8-8 8h-56c-4.4 0-8-3.6-8-8v-180c0-37.6 30.4-68 68-68h180c4.4 0 8 3.6 8 8v56c0 4.4-3.6 8-8 8zM888 256h-56c-4.4 0-8-3.6-8-8v-176H648c-4.4 0-8-3.6-8-8v-56c0-4.4 3.6-8 8-8h180c37.6 0 68 30.4 68 68V248c0 4.4-3.6 8-8 8zM904 420H120c-4.4 0-8-3.6-8-8v-56c0-4.4 3.6-8 8-8h784c4.4 0 8 3.6 8 8v56c0 4.4-3.6 8-8 8z"  horiz-adv-x="1024" />
      
      <glyph glyph-name="azure" unicode="&#59039;" d="M558.848 730.24L269.269 114.048l-203.477 2.219 227.115 390.869 265.941 223.147m31.232-48.64l368.085-643.84H277.333l414.976 74.026-217.301 258.347z"  horiz-adv-x="1024" />
      
      <glyph glyph-name="very-confirm" unicode="&#59038;" d="M0 384c0 282.339556 229.660444 512 512 512s512-229.660444 512-512-229.660444-512-512-512-512 229.660444-512 512z m950.897778 0c0 242.005333-196.892444 438.897778-438.897778 438.897778S73.102222 626.062222 73.102222 384c0-242.005333 196.892444-438.897778 438.897778-438.897778S950.897778 141.99466700000005 950.897778 384z m-194.446222-27.363556l-183.182223-181.191111h0.113778a36.579556 36.579556 0 1 0-51.427555 51.996445l121.230222 120.035555H292.636444a36.636444 36.636444 0 0 0 0 73.216h348.785778l-118.158222 118.328889a36.408889 36.408889 0 0 0 0.056889 51.712c14.222222 14.279111 37.432889 14.279111 51.768889 0L756.622222 408.519111l0.113778-0.113778h0.113778c2.844444-2.901333 4.664889-6.314667 6.257778-9.728l0.739555-1.137777 0.796445-1.137778a36.693333 36.693333 0 0 0-8.192-39.822222z"  horiz-adv-x="1024" />
      
      <glyph glyph-name="very-handshake" unicode="&#59037;" d="M968.021767 282.69922399999996c-0.870125 0-1.689067 0-2.559192 0.153552a22.520895 22.520895 0 0 0-18.630922 29.686634 24.875352 24.875352 0 0 0 5.323121 8.496519c23.902859 23.851675 47.908085 47.549798 71.657392 71.555025 14.433846 15.099236 27.127441 31.733988 36.698821 50.313726a184.773704 184.773704 0 0 1 18.682106 58.34959c7.472842 51.69569-6.807452 104.159138-30.249656 149.968685a408.90779 408.90779 0 0 1-69.712406 96.48156 461.422421 461.422421 0 0 1-36.084615 33.781342 396.163011 396.163011 0 0 1-41.561288 30.55676 225.976704 225.976704 0 0 1-22.72563 13.051882 219.373988 219.373988 0 0 1-30.607943 11.823469 308.894544 308.894544 0 0 1-41.305368 9.724932c-53.487125 8.854806-111.068958 4.452995-158.874675-22.827998a192.553649 192.553649 0 0 1-35.623961-26.410867c-71.657392-68.637545-143.673071-137.01917-210.928652-209.853791a24.7218 24.7218 0 0 1-3.736421-5.271937 7.728762 7.728762 0 0 1-0.870126-2.866295 6.039694 6.039694 0 0 1 1.074861-3.378135 21.39485 21.39485 0 0 1 4.350628-4.913649c7.012188-6.142062 16.174097-9.827299 25.080087-12.284125 3.019847-0.870125 6.090878-1.535516 9.161909-2.149722 25.028903-4.555363 52.309896-0.972493 74.42132 11.977022 6.346798 3.736421 12.079389 8.2406 17.40251 13.358985l52.616999 51.849242c7.268107 6.449165 15.048052 12.130573 23.800491 16.4812a93.666448 93.666448 0 0 0 27.63928 8.701254c28.30467 4.401811 56.558156-3.58287 83.378494-11.618734l22.418527-6.705084c4.452995-1.228412 8.90599-2.456825 13.358985-3.58287 13.666088-3.378134 27.485728-6.090878 41.612472-6.551533a117.620491 117.620491 0 0 1 55.227375 11.260447 159.181778 159.181778 0 0 1 29.22598 18.426187l2.047354 1.433148c0.767758 0.409471 1.484332 0.870125 2.252089 1.177228a22.520895 22.520895 0 0 0 31.426885-15.662258 22.572079 22.572079 0 0 0-4.606547-18.938025c-1.433148-1.689067-1.944986-2.047354-3.582869-3.480502l-6.142062-4.657731c-11.82347-8.496519-24.261146-15.969362-37.671315-21.701953a161.229132 161.229132 0 0 0-52.207529-12.437676 198.900447 198.900447 0 0 0-50.569645 3.58287c-23.288652 4.401811-45.809547 12.079389-68.586361 18.579738a477.289415 477.289415 0 0 1-12.130573 3.224583c-16.890671 3.889973-35.419225 6.90982-51.849241-0.66539-4.862466-2.252089-9.213093-5.271937-13.307802-8.701255l-1.074861-1.023677c-17.965532-17.658429-35.726328-35.521593-53.896595-53.02647l-4.094708-3.736421a140.039018 140.039018 0 0 0-29.328347-19.296312c-25.336006-12.335308-54.254883-16.890671-82.201266-14.331479a147.102389 147.102389 0 0 0-46.986775 12.335308c-17.914348 8.394152-34.907387 22.111424-40.947082 41.663655a49.392417 49.392417 0 0 0 2.25209 35.316858c3.224583 7.216923 7.882313 13.563721 13.205433 19.347496 68.84228 70.377796 139.527179 138.810605 209.341953 208.215908 13.307801 12.795963 27.946383 24.209962 43.915745 33.62779 8.445335 5.016017 17.248958 9.469013 26.308499 13.307802 51.69569 22.316159 109.942913 25.591926 165.016738 16.532384 16.020546-2.66156 31.836356-6.346798 47.345062-11.15808 12.591227-3.941157 24.97772-8.547703 36.852373-14.331478 9.417829-4.555363 18.426187-9.980851 27.229809-15.559891 16.174097-10.339138 31.580436-21.753137 46.270202-34.088445 46.730856-39.104463 87.012548-86.91018 115.266034-141.011511 24.97772-47.652166 40.844713-101.190474 38.694991-155.34299a238.823851 238.823851 0 0 0-9.059541-56.097501c-4.094708-14.177927-9.673748-27.946383-16.430017-41.100633a247.678657 247.678657 0 0 0-27.895199-42.380229c-5.220753-6.449165-10.799793-12.591227-16.532384-18.579738-23.902859-24.209962-48.11282-48.061637-72.16923-72.066863-1.637883-1.484332-1.99617-1.944986-3.889973-3.071031a24.926536 24.926536 0 0 0-9.417829-3.32695l-2.559192-0.153552zM926.46048 147.36912099999995a81.99653 81.99653 0 0 0-15.764626 1.689067 90.134762 90.134762 0 0 0-35.21449 16.4812 128.266732 128.266732 0 0 0-14.126743 12.48886L736.056552 307.06273799999997c-1.689067 1.99617-2.200906 2.405641-3.480501 4.708914a22.520895 22.520895 0 0 0 16.993038 33.269504 22.520895 22.520895 0 0 0 16.532384-4.760099c0.767758-0.563022 1.484332-1.279596 2.200906-1.944986 42.175494-43.506274 83.941516-87.319651 126.526481-130.36527 8.803622-8.496519 19.910518-16.071729 32.604113-15.713442 11.004528 0.255919 20.883011 6.551533 27.946383 14.638581 12.284124 13.973191 18.119083 35.21449 10.390322 52.821735a44.274032 44.274032 0 0 1-8.342968 12.386492L690.502925 551.9774669999999c-1.689067 1.99617-2.200906 2.405641-3.480502 4.708914a22.520895 22.520895 0 0 0 20.268805 33.21832 22.520895 22.520895 0 0 0 13.512537-4.964834c0.767758-0.614206 1.484332-1.33078 2.200905-1.99617 89.57174-93.871184 180.371893-186.616323 268.715221-281.715918a86.091238 86.091238 0 0 0 22.009056-49.03413c4.299444-41.100633-20.473541-84.811642-59.629187-99.706143a81.382324 81.382324 0 0 0-27.588096-5.118385zM160.59651 315.354522l-2.917479 0.204735a22.520895 22.520895 0 0 0-8.291784 2.815112c-2.303273 1.279596-2.712744 1.842619-4.657731 3.582869-23.954042 23.902859-48.11282 47.70335-71.913311 71.75976a302.906033 302.906033 0 0 0-20.934195 24.005227 252.797043 252.797043 0 0 0-30.915047 50.979116 235.957555 235.957555 0 0 0-20.06407 77.441167c-4.452995 52.309896 8.547703 104.824528 32.245827 151.299465a359.822476 359.822476 0 0 0 37.261844 58.349591A383.878886 383.878886 0 0 0 131.575266 817.877576C187.672768 863.277652 258.152931 893.936779 331.089919 893.936779c22.009056 0 44.018112-2.815112 65.208227-8.598887 20.985379-5.732591 41.203-14.331478 59.987474-25.38719 19.245128-11.311631 36.698822-25.131271 52.719367-40.588795l46.679673-46.372569 1.944986-2.200906a22.572079 22.572079 0 0 0 2.968664-22.264975 22.674446 22.674446 0 0 0-31.938724-10.953344c-2.252089 1.33078-2.712744 1.842619-4.65773 3.582869l-46.37257 46.11665a266.974969 266.974969 0 0 1-17.81198 15.815811 216.558876 216.558876 0 0 1-42.482597 26.71797A198.490976 198.490976 0 0 1 348.134142 848.383151c-54.869089 4.452995-109.584626-13.307801-155.75246-42.175494a329.163349 329.163349 0 0 1-44.325215-33.218319 340.423796 340.423796 0 0 1-59.885107-69.76359c-29.481898-46.065466-47.652166-101.036923-42.226677-156.110747a191.837075 191.837075 0 0 1 18.528554-65.25941c7.268107-14.894501 16.430016-28.867692 27.025074-41.663656 5.067201-6.142062 10.441506-11.977021 16.071729-17.658428l68.944648-68.842281 1.944986-2.200905a22.367343 22.367343 0 0 0-11.977021-35.316858c-0.972493-0.307103-1.944986-0.409471-2.917479-0.614206l-2.91748-0.204735zM823.785674 53.39557000000002a82.559552 82.559552 0 0 0-57.479465 23.698123c-47.089143 47.089143-92.847507 95.355515-139.322444 143.058865a22.572079 22.572079 0 0 0 13.000698 37.87605 22.520895 22.520895 0 0 0 18.119084-5.527856c48.36874-46.423753 91.670278-98.017076 140.397304-144.082542a40.281691 40.281691 0 0 1 9.929668-6.653901c15.303972-7.063372 33.678974-2.66156 47.089143 6.551533 2.559193 1.791435 5.016017 3.736421 7.319291 5.937327a45.707179 45.707179 0 0 1 13.768456 23.595756 35.521593 35.521593 0 0 1 0.66539 6.858636c0 12.284124-6.653901 23.186285-14.740949 32.041091-44.734686 47.242695-90.544233 93.410529-135.790758 140.141385a23.339836 23.339836 0 0 0-5.988511 11.82347 22.674446 22.674446 0 0 0 19.091577 26.001396 22.520895 22.520895 0 0 0 18.067899-5.579039c47.396246-45.707179 92.2333-94.024735 137.531009-141.830453 4.24826-4.708914 8.189416-9.57138 11.721102-14.843317 6.807452-10.287954 11.772286-21.855505 13.81964-34.037261a80.153911 80.153911 0 0 0-2.559193-37.824866c-9.622564-30.863862-36.750005-54.664353-67.460316-63.467976a99.910878 99.910878 0 0 0-22.879182-3.685237l-4.299443-0.051184zM714.76407-30.95541800000001a84.043884 84.043884 0 0 0-58.963797 23.800491c-24.05641 23.646939-48.215188 47.242695-71.350289 71.862128a22.520895 22.520895 0 0 0 20.422357 37.005925 23.288652 23.288652 0 0 0 11.413999-5.425489c24.465881-23.288652 46.730856-48.829394 71.452657-71.862127a40.588794 40.588794 0 0 1 20.934195-10.032035c15.918178-2.405641 32.757665 4.452995 43.762193 15.866994a41.714839 41.714839 0 0 1 11.362815 20.985379 41.049449 41.049449 0 0 1-7.268107 29.840185c-2.815112 4.24826-6.142062 7.882313-9.520196 11.669918l-1.535516 2.047355a22.469711 22.469711 0 0 0 35.21449 27.639279l5.425488-6.039694c3.32695-4.094708 6.500349-8.342968 9.315461-12.795963 6.397981-10.339138 11.004528-21.804321 12.898331-33.832526a79.539705 79.539705 0 0 0-3.787605-39.20683c-9.110726-25.38719-30.403208-45.297709-55.27856-54.971457a99.706143 99.706143 0 0 0-34.497916-6.551533zM191.460373 160.77928999999995a86.142422 86.142422 0 0 0-51.081484 16.583568c-6.397981 4.708914-11.772286 10.390322-17.40251 15.969362a86.142422 86.142422 0 0 0-18.835657 93.410529c4.094708 10.083219 10.032035 19.091577 17.402509 27.025073 32.29701 33.167136 65.054675 65.924801 98.272995 98.272995 6.858636 6.397981 14.536214 11.772286 23.083917 15.713443a87.524386 87.524386 0 0 0 72.681069 0c8.547703-3.99234 16.225281-9.315461 23.135101-15.713443 3.58287-3.429318 7.012188-6.961004 10.441506-10.492689 6.397981-6.90982 11.772286-14.587398 15.713442-23.135101a87.524386 87.524386 0 0 0 0-72.681069 88.394512 88.394512 0 0 0-15.713442-23.083917c-32.348194-33.167136-65.003491-65.924801-98.221811-98.272995a91.465543 91.465543 0 0 0-13.717272-10.595058 88.445695 88.445695 0 0 0-45.70718-13.000698z m0 44.888238a42.482597 42.482597 0 0 1 28.560589 11.260447c32.860033 32.041091 66.129536 63.775079 97.351685 97.40287a42.12431 42.12431 0 0 1 6.705085 10.23677c5.118385 10.953344 5.118385 24.05641 0 35.060938a42.073126 42.073126 0 0 1-7.421659 11.004528c-3.173399 3.224583-6.295614 6.500349-9.622564 9.57138a42.277861 42.277861 0 0 1-45.297708 6.756269 42.073126 42.073126 0 0 1-11.004528-7.472842c-32.860033-32.041091-66.18072-63.723895-97.40287-97.454054a42.226677 42.226677 0 0 1-6.756268-45.297708c1.944986-4.043524 4.452995-7.677578 7.524026-10.953344 3.173399-3.275766 6.295614-6.500349 9.622564-9.571381a42.277861 42.277861 0 0 1 27.741648-10.543873zM295.056488 60.868412000000035a86.347157 86.347157 0 0 0-51.081484 16.583568c-6.346798 4.708914-11.772286 10.390322-17.402509 16.020545a85.681767 85.681767 0 0 0-19.552232 30.403208 87.524386 87.524386 0 0 0 0.767758 62.956138c4.043524 10.083219 9.980851 19.091577 17.351326 27.025073A8079.370958 8079.370958 0 0 0 379.765762 368.48335999999995c6.90982 6.397981 14.587398 11.772286 23.135101 15.713442a87.370835 87.370835 0 0 0 72.681069 0c8.598887-3.941157 16.276465-9.315461 23.135101-15.713442 3.58287-3.480502 7.063372-6.90982 10.49269-10.441506 6.858636-7.421658 12.540044-15.764626 16.532384-25.080087 9.724932-22.418527 9.366645-48.624659-0.870126-70.787267a88.752798 88.752798 0 0 0-15.662258-23.032733 8321.726495 8321.726495 0 0 0-154.6776-154.626416 90.851336 90.851336 0 0 0-13.717272-10.646241 88.394512 88.394512 0 0 0-45.758363-12.949514z m0 44.939422a42.482597 42.482597 0 0 1 28.560589 11.260447c51.900425 50.569645 104.517425 100.525084 153.75629 153.705106a42.329045 42.329045 0 0 1 7.165739 44.376399 42.021942 42.021942 0 0 1-7.882313 11.977021 270.404287 270.404287 0 0 1-9.673748 9.571381 42.226677 42.226677 0 0 1-11.106896 7.165739 42.12431 42.12431 0 0 1-45.19534-7.933497C358.831567 285.36078499999996 306.214568 235.405346 256.975703 182.17413999999997a42.175494 42.175494 0 0 1-6.756269-10.23677 42.329045 42.329045 0 0 1 0-35.060939c1.893803-4.094708 4.452995-7.728762 7.472842-11.004528 3.173399-3.224583 6.295614-6.500349 9.622565-9.520196a42.329045 42.329045 0 0 1 27.741647-10.543873zM404.641114-33.05395499999997a86.193606 86.193606 0 0 0-51.081484 16.634751c-6.397981 4.65773-11.772286 10.339138-17.402509 15.969362a86.091238 86.091238 0 0 0-20.268805 32.399378 87.422018 87.422018 0 0 0 1.433147 60.959967c4.094708 10.083219 10.032035 19.091577 17.40251 27.025074 35.21449 36.135799 70.889634 71.810944 106.97425 106.974249 7.472842 6.90982 15.764626 12.591227 25.080087 16.583568 22.418527 9.724932 48.573475 9.417829 70.736083-0.818941 8.547703-3.99234 16.225281-9.315461 23.1351-15.713443l10.49269-10.492689c6.397981-6.90982 11.772286-14.587398 15.713442-23.135101 10.23677-22.213792 10.543873-48.317556 0.818942-70.736083-3.99234-9.315461-9.673748-17.658429-16.532384-25.080087-35.21449-36.084615-70.889634-71.75976-106.97425-106.97425a91.311991 91.311991 0 0 0-13.81964-10.595057 88.292144 88.292144 0 0 0-45.707179-13.051882z m0 44.888237a42.329045 42.329045 0 0 1 28.560589 11.260448c35.828696 34.907387 72.118047 69.456486 106.104124 106.155308a42.226677 42.226677 0 0 1 6.756269 45.297708 42.380229 42.380229 0 0 1-7.472843 11.004528c-3.173399 3.224583-6.346798 6.500349-9.673748 9.57138a42.12431 42.12431 0 0 1-44.325215 7.16574 42.329045 42.329045 0 0 1-11.925837-7.882313c-35.828696-34.907387-72.169231-69.456486-106.104124-106.155308a42.226677 42.226677 0 0 1-6.756269-45.246525c1.842619-4.094708 4.401811-7.728762 7.472842-11.055712 3.173399-3.224583 6.295614-6.500349 9.622565-9.57138a42.380229 42.380229 0 0 1 27.741647-10.543874zM511.56418-128a86.24479 86.24479 0 0 0-51.081484 16.583568c-6.449165 4.708914-11.82347 10.390322-17.402509 16.020545a85.988871 85.988871 0 0 0-19.603416 30.403208 87.524386 87.524386 0 0 0 0.767758 62.956138c4.043524 10.083219 9.980851 19.091577 17.40251 27.025073 22.009056 22.572079 44.274032 44.888238 66.84611 66.897294 6.90982 6.397981 14.587398 11.772286 23.135101 15.713442a87.473202 87.473202 0 0 0 72.681069 0c8.547703-3.941157 16.225281-9.315461 23.135101-15.713442 3.58287-3.429318 7.063372-6.90982 10.492689-10.49269 6.397981-6.90982 11.772286-14.587398 15.713443-23.1351 10.49269-22.827998 10.49269-49.801888-0.051184-72.68107a88.650431 88.650431 0 0 0-15.662259-23.032733c-22.009056-22.623262-44.325215-44.939422-66.948478-66.948477a90.851336 90.851336 0 0 0-13.717272-10.595058 88.292144 88.292144 0 0 0-45.707179-13.000698z m0 44.888238a42.482597 42.482597 0 0 1 28.509405 11.260447c22.316159 21.753137 44.888238 43.250355 66.027169 66.027169a42.175494 42.175494 0 0 1 6.705084 10.23677c5.118385 11.004528 5.118385 24.05641 0 35.060938a42.175494 42.175494 0 0 1-7.421658 11.004528c-3.173399 3.275766-6.346798 6.500349-9.622564 9.57138a42.277861 42.277861 0 0 1-11.15808 7.16574 42.226677 42.226677 0 0 1-34.139629-0.358287 42.277861 42.277861 0 0 1-11.004528-7.524027c-22.316159-21.701953-44.888238-43.199171-66.027169-66.027168a42.329045 42.329045 0 0 1-7.165739-11.15808 42.329045 42.329045 0 0 1 0.460655-34.190812c1.842619-4.094708 4.401811-7.677578 7.421658-11.004528 3.173399-3.224583 6.295614-6.449165 9.622564-9.520197a42.431413 42.431413 0 0 1 27.792832-10.543873z"  horiz-adv-x="1126" />
      
      <glyph glyph-name="very-user" unicode="&#59035;" d="M512 384c52.8 0 96 43.2 96 96s-43.2 96-96 96c-52.768 0-96-43.2-96-96s43.232-96 96-96z m0 256a160.032 160.032 0 0 0 0-320c-88.32 0-160 71.68-160 160s71.68 160 160 160z m285.792-558.08A414.432 414.432 0 0 1 928 384c0 229.44-186.56 416-416 416S96 613.44 96 384c0-118.72 49.952-226.24 130.272-302.08 4.8 39.04 19.84 72 44.8 98.56C318.432 231.36 397.12 256 512 256c114.912 0 193.632-24.64 240.992-75.52 24.96-26.56 40-59.52 44.8-98.56z m-62.4-48.64v0.96c3.168 44.48-6.4 78.08-29.12 102.72C672 173.44000000000005 606.72 192 512 192c-94.72 0-160-18.56-194.208-55.04-22.72-24.64-32.352-58.24-29.12-102.72v-0.96A414.016 414.016 0 0 1 512-32c81.952 0 158.72 24 223.392 65.28zM512 864c264.672 0 480-215.36 480-480S776.672-96 512-96C247.392-96 32 119.36000000000001 32 384S247.392 864 512 864z"  horiz-adv-x="1024" />
      
      <glyph glyph-name="very-sort" unicode="&#59122;" d="M398.933333 213.33333300000004h85.333334c8.533333 0 12.8-2.133333 14.933333-6.4 2.133333-4.266667 0-8.533333-6.4-14.933333l-130.133333-142.933333c-4.266667-6.4-12.8-8.533333-19.2-8.533334-8.533333 0-14.933333 2.133333-19.2 8.533334l-130.133334 142.933333c-4.266667 4.266667-6.4 10.666667-6.4 14.933333 2.133333 4.266667 6.4 6.4 14.933334 6.4h85.333333v512h113.066667l-2.133334-512z m302.933334 503.466667l130.133333-140.8c4.266667-4.266667 6.4-10.666667 6.4-14.933333-2.133333-4.266667-6.4-6.4-14.933333-6.4h-85.333334v-512h-113.066666v512h-85.333334c-8.533333 0-12.8 2.133333-14.933333 6.4-2.133333 4.266667 0 8.533333 6.4 14.933333l130.133333 140.8c4.266667 6.4 12.8 8.533333 19.2 8.533333 10.666667 0 17.066667-2.133333 21.333334-8.533333z"  horiz-adv-x="1024" />
      
      <glyph glyph-name="very-gears" unicode="&#59217;" d="M118.096023 201.01833599999998c5.629713-1.343454 13.274607-8.284634 15.481711-14.618061l11.195452-26.997033c2.526973-5.181895 2.047168-15.449724-0.95961-20.375722l-44.685847-73.05832c-9.564115-15.673633-7.58092-37.872614 5.277856-52.266767l37.840627-37.80864c13.178646-11.707244 36.433199-13.818386 51.59504-4.638116l73.05832 44.685847c4.574142 2.814856 14.394152 3.806454 21.271359 0.575766l26.965045-11.131478c5.437791-1.887233 12.378971-9.500141 13.722425-15.129853l20.055853-83.294162c4.254272-17.656827 21.111423-32.178927 39.216068-33.842252 0 0 11.099491-1.023584 27.732734-1.023584s27.732734 1.023584 27.76472 1.023584a46.189236 46.189236 0 0 1 39.184082 33.842252l20.087839 83.294162c1.343454 5.597726 8.252647 13.24262 14.586074 15.449723l26.997033 11.195452c4.766064 2.335051 15.801581 1.855246 20.375722-0.95961l73.05832-44.685847c6.429388-3.934402 14.106269-6.013557 22.262956-6.013557 11.035517 0 21.719177 3.870428 30.003811 11.259426l37.80864 37.840627a45.005716 45.005716 0 0 1 4.638116 51.59504l-44.685846 73.05832c-3.006778 4.925999-3.486584 15.193828-0.575767 21.271359l11.131478 26.965045c1.887233 5.437791 9.500141 12.378971 15.129854 13.722425l83.294162 20.055853a46.25321 46.25321 0 0 1 33.842251 39.216068s1.023584 11.099491 1.023584 27.732734-1.023584 27.732734-1.023584 27.76472a46.285197 46.285197 0 0 1-33.842251 39.216069l-83.262175 20.023865c-5.629713 1.343454-13.274607 8.284634-15.481711 14.618061l-11.195452 26.997033c-2.526973 5.181895-2.047168 15.449724 0.959611 20.375722l44.685846 73.05832c9.564115 15.673633 7.58092 37.872614-5.277856 52.266767l-37.840627 37.80864c-13.210633 11.739231-36.497173 13.850373-51.59504 4.638116l-73.05832-44.685846c-4.574142-2.782869-14.426139-3.838441-21.271358-0.575767l-26.965046 11.131478c-5.437791 1.887233-12.346984 9.500141-13.690438 15.129854l-20.087839 83.294162a46.25321 46.25321 0 0 1-39.216069 33.842251C443.563802 702.830475 432.464311 703.854059 415.831069 703.854059s-27.732734-1.023584-27.764721-1.023584a46.285197 46.285197 0 0 1-39.216068-33.842251l-20.023866-83.230188c-1.343454-5.629713-8.284634-13.274607-14.618061-15.481711l-26.997033-11.195452c-4.798051-2.335051-15.801581-1.823259-20.375722 0.959611L193.809265 604.72633c-15.129853 9.212258-37.904601 7.612907-52.266767-5.245869l-37.80864-37.840627a45.005716 45.005716 0 0 1-4.638116-51.59504l44.685847-73.05832c3.006778-4.925999 3.486584-15.193828 0.575766-21.271358l-11.131478-26.965046c-1.887233-5.437791-9.500141-12.378971-15.129854-13.722425l-83.294161-20.055852A46.25321 46.25321 0 0 1 0.95961 315.755724c0.063974 0-0.95961-11.099491-0.95961-27.732733s1.023584-27.732734 1.023584-27.764721a46.285197 46.285197 0 0 1 33.842252-39.216068l83.230187-20.023866zM31.987005 288.02299100000005c0 14.650048 0.863649 24.534033 0.895636 24.853903a14.905944 14.905944 0 0 0 9.468154 11.00353l83.294162 20.055852c16.153438 3.902415 32.434823 18.680411 37.48877 33.490394l10.36379 25.173774c7.293037 14.937931 6.269453 36.881017-2.399026 51.083247l-44.685846 73.026333c-2.143129 3.550558-1.535376 10.587699 0.575766 12.986724L163.485584 576.225908c2.910817 2.590947 10.331803 3.230688 13.658451 1.215506l73.05832-44.685846c13.850373-8.476556 37.584731-9.052322 50.155625-2.814856l25.20576 10.427763c15.70562 5.405804 30.483616 21.68719 34.38603 37.872615l20.023866 83.262174a14.873957 14.873957 0 0 0 11.00353 9.500141c0.31987 0 10.203855 0.863649 24.853903 0.863649s24.534033-0.863649 24.853903-0.895636a14.905944 14.905944 0 0 0 11.00353-9.468154l20.055852-83.262174c3.902415-16.153438 18.648424-32.46681 33.490394-37.520758l25.173774-10.363789c14.618061-7.165089 37.264861-6.045544 51.083247 2.399025l73.026333 44.685846c3.326649 2.015181 11.195452 0.95961 12.986724-0.575766l36.52916-36.497173c2.750882-3.10274 3.358636-10.107894 1.215506-13.658451l-44.685846-73.05832c-8.668478-14.170243-9.692063-36.145316-2.814856-50.155624l10.427763-25.20576c5.405804-15.70562 21.68719-30.483616 37.872615-34.386031l83.262174-20.023865a14.873957 14.873957 0 0 0 9.500141-11.00353c0-0.31987 0.863649-10.203855 0.863649-24.853903s-0.863649-24.534033-0.895636-24.853903a14.905944 14.905944 0 0 0-9.468154-11.00353l-83.294161-20.055853c-16.153438-3.902415-32.434823-18.680411-37.488771-33.490394l-10.363789-25.173773c-7.293037-14.937931-6.269453-36.881017 2.399025-51.083248l44.685846-73.026333c2.143129-3.550558 1.535376-10.587699-0.575766-12.986724l-36.497173-36.52916a12.730828 12.730828 0 0 0-8.028738-2.526973 11.067504 11.067504 0 0 0-5.597726 1.311467l-73.05832 44.685846c-13.818386 8.444569-37.552744 9.052322-50.155624 2.814857l-25.20576-10.427764c-15.70562-5.405804-30.483616-21.719177-34.354044-37.872614l-20.055852-83.262175a14.873957 14.873957 0 0 0-11.00353-9.500141c-0.351857 0-10.235842-0.863649-24.88589-0.863649s-24.534033 0.863649-24.853903 0.895636a14.905944 14.905944 0 0 0-11.00353 9.468154l-20.055853 83.294162c-3.902415 16.153438-18.680411 32.434823-33.490394 37.48877l-25.173773 10.36379a52.23478 52.23478 0 0 1-22.870709 4.862024c-10.523725 0-20.535657-2.590947-28.212539-7.293037l-73.026333-44.685846c-3.326649-2.015181-11.227439-0.927623-12.986724 0.575766L127.628151 35.677505999999994c-2.750882 3.10274-3.358636 10.107894-1.215506 13.658451l44.685846 73.05832c8.668478 14.170243 9.692063 36.145316 2.814857 50.155625l-10.427764 25.20576c-5.405804 15.70562-21.68719 30.483616-37.872614 34.38603l-83.262175 20.023866a14.873957 14.873957 0 0 0-9.500141 11.00353c0 0.31987-0.863649 10.203855-0.863649 24.853903zM415.831069 112.09446200000002c97.016587 0 175.928529 78.911942 175.928529 175.928529s-78.911942 175.928529-175.928529 175.928529-175.928529-78.911942-175.928529-175.928529 78.911942-175.928529 175.928529-175.928529z m0 319.870052c79.35976 0 143.941524-64.581764 143.941523-143.941523s-64.581764-143.941524-143.941523-143.941524-143.941524 64.581764-143.941524 143.941524 64.581764 143.941524 143.941524 143.941523zM878.906944 725.797145a13.56249 13.56249 0 0 0-8.284634-4.414207l-59.527817 0.575766a37.104926 37.104926 0 0 1-33.682317-23.862306s-2.622934-7.452972-5.501765-18.872333c-2.87883-11.419361-4.094337-19.22419-4.094336-19.22419-2.23909-14.426139 5.789648-30.387655 18.680411-37.136913l52.490675-27.508825a13.914347 13.914347 0 0 0 5.309843-8.732452l2.974792-20.311748a13.626464 13.626464 0 0 0-2.686909-8.956362l-42.286821-41.455159c-10.587699-10.36379-13.370568-28.084591-6.077531-41.998938l19.160217-31.987005c8.092712-11.899166 25.621591-17.976697 39.376003-13.690438l58.344298 17.848749c3.166714 0 6.333427-1.215506 8.124699-2.654922l16.473308-12.155062a13.754412 13.754412 0 0 0 4.414206-8.284634l-0.575766-59.239934c-0.127948-14.586074 10.107894-29.204136 23.862306-34.002186 0 0 7.452972-2.622934 18.872333-5.501765 11.419361-2.87883 19.22419-4.094337 19.224191-4.094337 0.831662-0.127948 4.158311-0.383844 4.989972-0.383844a37.424796 37.424796 0 0 1 32.146941 19.064255l27.508824 52.490676a13.914347 13.914347 0 0 0 8.732453 5.309843l21.207384 3.070752c3.198701 0 6.973167-1.663324 8.028739-2.750882l41.455158-42.286821c10.075907-10.299816 27.061006-13.978321 41.998938-6.077531l31.955019 19.160216c12.219036 8.316621 18.136632 25.269734 13.722425 39.376003l-17.656827 56.521039a13.850373 13.850373 0 0 0 2.494986 9.947958l12.155062 16.473308a13.56249 13.56249 0 0 0 8.284635 4.414207l59.527817-0.575766a37.104926 37.104926 0 0 1 33.682316 23.862306s2.622934 7.452972 5.501765 18.872333c2.87883 11.419361 4.094337 19.22419 4.094337 19.22419a37.104926 37.104926 0 0 1-18.680411 37.136913l-52.490676 27.508825a13.914347 13.914347 0 0 0-5.309843 8.732452l-2.942804 20.247774a13.626464 13.626464 0 0 0 2.686908 8.956362l42.286821 41.455159c10.587699 10.36379 13.370568 28.084591 6.077531 41.998938l-19.160216 31.987005c-8.092712 11.867179-25.589604 18.008684-39.376004 13.722425l-58.376284-17.848749a13.818386 13.818386 0 0 0-8.1247 2.654922l-16.473307 12.155062a13.754412 13.754412 0 0 0-4.414207 8.284634l0.575766 59.239934a37.040952 37.040952 0 0 1-23.862306 34.002186s-7.452972 2.622934-18.872333 5.501765c-11.419361 2.87883-19.22419 4.094337-19.22419 4.094337a87.164589 87.164589 0 0 1-4.989973 0.351857 37.424796 37.424796 0 0 1-32.14694-19.064255l-27.508825-52.490676a13.914347 13.914347 0 0 0-8.732452-5.309843l-21.207385-3.038765a13.978321 13.978321 0 0 0-8.028738 2.750882l-41.455159 42.286821a35.56955 35.56955 0 0 1-41.998938 6.077531l-31.987005-19.128229c-12.219036-8.316621-18.136632-25.269734-13.722425-39.376003l17.656826-56.521039a13.850373 13.850373 0 0 0-2.494986-9.947958l-12.123075-16.473308z m26.229344-18.296567l10.971543 14.905944c8.572517 10.139881 11.899166 26.677162 7.932778 39.31203l-17.62484 56.489051c-0.159935 0.895636 0.543779 2.910817 0.383844 2.942805l30.323681 18.168619 3.614531-0.543779 41.487146-42.286821c7.357011-7.484959 19.480086-12.346984 30.86746-12.346984a30.22772 30.22772 0 0 1 6.525349 0.607753l18.392528 2.718895a44.557898 44.557898 0 0 1 33.362447 22.198982l27.476837 52.458688a5.917596 5.917596 0 0 0 3.838441 1.951208c0.351857-0.031987 6.877206-1.119545 16.409334-3.486584 9.500141-2.399025 15.769594-4.542155 16.057476-4.670103 0.991597-0.415831 2.431012-2.494986 2.494987-3.51857l-0.575766-59.239934c-0.127948-13.24262 7.836816-28.116578 18.136632-34.833849l14.873957-10.971543c9.883985-8.348608 26.837097-11.867179 39.31203-7.932777l56.744947 17.656827c1.343454 0 2.846843-0.831662 2.654921-0.415831l18.168619-30.323681c0.351857-0.831662 0-2.942804-0.543779-3.614532l-42.286821-41.487145c-9.436167-9.308219-14.330178-25.429669-11.739231-37.39281l2.686909-18.392528c1.151532-13.178646 10.491738-27.220941 22.230969-33.362446l52.458688-27.476838a6.045544 6.045544 0 0 0 1.951207-3.83844 204.876769 204.876769 0 0 0-3.486583-16.409334 194.960797 194.960797 0 0 0-4.670103-16.057477c-0.415831-0.991597-2.494986-2.431012-3.51857-2.494986l-59.559804 0.575766c-13.146659 0-27.860682-7.964764-34.513979-18.136632l-10.939556-14.873957a44.333989 44.333989 0 0 1-7.932777-39.31203l17.62484-56.489051c0.159935-0.863649-0.543779-2.910817-0.383844-2.942805l-30.323681-18.168619-3.614532 0.543779-41.487146 42.286821c-7.357011 7.484959-19.480086 12.346984-30.86746 12.346984a30.22772 30.22772 0 0 1-6.525349-0.607753l-18.392528-2.718895a44.557898 44.557898 0 0 1-33.362446-22.198982l-27.476838-52.458689a5.917596 5.917596 0 0 0-3.838441-1.951207 204.876769 204.876769 0 0 0-16.409333 3.486584 194.960797 194.960797 0 0 0-16.057477 4.670103c-0.991597 0.415831-2.431012 2.494986-2.494986 3.51857l0.575766 59.239934c0.127948 13.24262-7.836816 28.116578-18.136632 34.833849l-14.873958 10.971542a44.365976 44.365976 0 0 1-39.344016 7.932778l-56.744948-17.656827c-1.375441 0-2.87883 0.735701-2.654921 0.415831l-18.168619 30.323681c-0.351857 0.831662 0 2.942804 0.543779 3.614531l42.286821 41.487146c9.436167 9.308219 14.330178 25.429669 11.739231 37.39281l-2.686908 18.360541a44.525911 44.525911 0 0 1-22.230969 33.362446l-52.458689 27.476838a6.045544 6.045544 0 0 0-1.951207 3.83844c0.031987 0.351857 1.119545 6.877206 3.486584 16.409334 2.399025 9.500141 4.542155 15.769594 4.670102 16.057477 0.415831 0.991597 2.494986 2.431012 3.518571 2.494986l59.559804-0.575766c13.146659 0 27.860682 7.964764 34.513978 18.136632zM1055.571174 511.932028c52.906507 0 95.961016 43.054509 95.961016 95.961015s-43.054509 95.961016-95.961016 95.961016-95.961016-43.054509-95.961016-95.961016 43.054509-95.961016 95.961016-95.961015z m0 159.935026c35.281667 0 63.974011-28.692344 63.974011-63.974011s-28.692344-63.974011-63.974011-63.97401-63.974011 28.692344-63.97401 63.97401 28.692344 63.974011 63.97401 63.974011z"  horiz-adv-x="1344" />
      
      <glyph glyph-name="very-k8s" unicode="&#59600;" d="M555.385 832.103l279.882-134.707a99.947 99.947 0 0 0 54.1-67.802l69.125-302.685a99.893 99.893 0 0 0-19.308-84.547L745.5-0.3730000000000473A100.014 100.014 0 0 0 667.323-38H356.677c-30.43 0-59.204 13.85-78.177 37.627L84.816 242.36199999999997a99.893 99.893 0 0 0-19.308 84.547l69.125 302.685a99.947 99.947 0 0 0 54.1 67.802L468.615 832.103a100.044 100.044 0 0 0 86.77 0z m-68.848-35.746l-0.568-0.27L206.087 661.38a59.969 59.969 0 0 1-32.325-40.102l-0.135-0.579-69.125-302.685a59.936 59.936 0 0 1 11.204-50.246l0.381-0.483 193.684-242.734a60.02 60.02 0 0 1 46.305-22.577h311.247a60.009 60.009 0 0 1 46.529 22.108l0.377 0.469 193.684 242.734a59.936 59.936 0 0 1 11.719 50.129l-0.134 0.6-69.125 302.685a59.968 59.968 0 0 1-31.926 40.42l-0.534 0.26L538.03 796.088a60.026 60.026 0 0 1-51.494 0.27zM512.89 710c10.49 0 18.994-8.506 18.994-19 0-1.18-0.108-2.334-0.314-3.455l-4.685-51.543 3.999-9 0.396-7.709c59.458-4.605 112.71-31.353 151.526-72.01l6.002 4.372 9.51 2.556 37.112 36.082c0.74 0.864 1.569 1.673 2.485 2.414 8.154 6.604 20.116 5.348 26.718-2.804 6.601-8.152 5.342-20.114-2.812-26.717a19.114 19.114 0 0 0-2.883-1.931l-43.005-28.796-4.477-8.772-5.424-4.87c26.34-37.973 41.777-84.087 41.777-133.808 0-11.551-0.833-22.909-2.443-34.014l6.367-1.817 7.87-5.92 51.28-7.03c1.137-0.052 2.284-0.207 3.432-0.472 10.225-2.36 16.6-12.56 14.24-22.78-2.36-10.222-12.56-16.594-22.785-14.233-1.15 0.265-2.25 0.63-3.296 1.082l-49.168 16.16-9.669-1.872-6.354 1.129c-17.388-56.019-55.162-103.061-104.644-132.446l2.293-5.383 0.351-9.842 26.81-44.277a19.115 19.115 0 0 0 1.793-2.964c4.6-9.431 0.685-20.804-8.743-25.403-9.428-4.598-20.8-0.68-25.4 8.75a19.114 19.114 0 0 0-1.233 3.243l-18.384 48.38-7.54 6.337-2.76 4.995c-26.89-10.72-56.224-16.616-86.936-16.616-31.864 0-62.246 6.346-89.952 17.843l-3.37-5.853-7.649-6.204-19.227-48.057a19.115 19.115 0 0 0-1.288-3.216c-4.764-9.35-16.203-13.068-25.549-8.306-9.346 4.763-13.061 16.202-8.298 25.552a19.114 19.114 0 0 0 1.848 2.936l27.575 43.799 0.523 9.834 2.764 6.187c-49.222 30.19-86.47 78.01-102.96 134.674l-7.003-1.117-9.634 2.04-49.448-15.301a19.115 19.115 0 0 0-3.31-1.023c-10.264-2.182-20.352 4.368-22.533 14.628-2.18 10.26 4.372 20.347 14.635 22.529a19.114 19.114 0 0 0 3.445 0.412l51.391 6.133 7.972 5.783 7.026 1.872a237.347 237.347 0 0 0-1.877 29.848c0 49.875 15.533 96.12 42.023 134.16l-6.054 5.437-4.478 8.77-43.01 28.8a19.115 19.115 0 0 0-2.877 1.928c-8.155 6.604-9.414 18.565-2.813 26.718 6.602 8.152 18.564 9.407 26.718 2.803a19.114 19.114 0 0 0 2.488-2.417l37.109-36.079 9.51-2.556 6.747-4.915c38.785 40.447 91.893 67.045 151.168 71.635l0.394 7.71 4 9-4.687 51.547a19.115 19.115 0 0 0-0.312 3.45c0 10.494 8.503 19 18.993 19z m-11.16-405.225l-54.593-94.865c20.454-7.69 42.613-11.895 65.753-11.895 22.289 0 43.666 3.902 63.487 11.06l-52.834 95.631a81.703 81.703 0 0 0-10.653-0.694c-3.786 0-7.512 0.26-11.16 0.763z m80.307 38.065a81.334 81.334 0 0 0-11.38-14.59l42.953-100.8c35.034 22.457 62.084 56.284 75.946 96.277l-107.52 19.113z m-139.041 1.25L335.17 326.856c13.25-40.544 39.98-74.988 74.89-98.033l44.633 99.87a81.303 81.303 0 0 0-11.698 15.397z m69.894 68.919l-21.883-10.542-5.405-23.688 15.144-18.996h24.289l15.144 18.996-5.405 23.688-21.884 10.542z m157.076 73.425l-81.249-72.95a80.515 80.515 0 0 0 4.611-19.123l105.365-30.054a189.116 189.116 0 0 1 1.133 20.702c0 37.386-10.968 72.209-29.86 101.425z m-313.917 0.362c-19.036-29.29-30.094-64.247-30.094-101.787 0-5.85 0.268-11.639 0.794-17.352l105.891 28.216a80.477 80.477 0 0 0 4.585 18.037l-81.176 72.886z m177.7 84.057l5.573-109.26a80.591 80.591 0 0 0 15.718-7.412l88.547 64.524c-29.033 28.404-67.28 47.422-109.838 52.148z m-41.717 0c-42.376-4.706-80.478-23.582-109.465-51.784l88.65-64.598a80.58 80.58 0 0 0 15.242 7.122l5.573 109.26z"  horiz-adv-x="1024" />
      
      <glyph glyph-name="very-master" unicode="&#59033;" d="M853.617778 527.36A141.710222 141.710222 0 1 1 671.288889 392.135111a113.379556 113.379556 0 0 0-101.262222-63.317333H456.817778a168.96 168.96 0 0 1-113.379556-44.202667V558.535111a141.653333 141.653333 0 1 1-56.661333 0v-345.827555a143.189333 143.189333 0 1 1 68.835555-3.697778 113.322667 113.322667 0 0 0 101.262223 63.146666h113.322666a170.097778 170.097778 0 0 1 160.199111 115.313778 141.653333 141.653333 0 0 1 123.278223 139.832889h-0.056889zM230.001778 697.457778a85.048889 85.048889 0 1 0 170.097778 0 85.048889 85.048889 0 0 0-170.097778 0z m170.097778-623.672889a85.048889 85.048889 0 1 0-170.097778 0 85.048889 85.048889 0 0 0 170.097778 0z m311.751111 368.469333a85.048889 85.048889 0 1 0 0 170.097778 85.048889 85.048889 0 0 0 0-170.097778z"  horiz-adv-x="1024" />
      
      <glyph glyph-name="very-nodeid" unicode="&#59034;" d="M512.682667 535.722667a171.690667 171.690667 0 0 1-172.088889-171.349334c0-95.345778 77.710222-169.984 172.145778-169.984a171.747556 171.747556 0 0 1 172.145777 171.349334c0 95.345778-77.767111 169.984-172.202666 169.984z m0-258.446223a88.405333 88.405333 0 0 0-88.803556 88.462223c0 49.720889 38.798222 88.405333 88.803556 88.405333 50.005333 0 88.860444-38.684444 88.860444-88.405333a88.291556 88.291556 0 0 0-88.860444-88.462223zM382.179556 407.153778h-245.76a40.789333 40.789333 0 0 1-41.585778-41.415111c0-23.552 18.033778-41.472 41.642666-41.472h245.76a40.846222 40.846222 0 0 1 41.642667 41.472 40.789333 40.789333 0 0 1-41.699555 41.415111z m505.344 0h-245.76a40.789333 40.789333 0 0 1-41.642667-41.415111c0-23.552 18.090667-41.472 41.699555-41.472h245.76a40.846222 40.846222 0 0 1 41.585778 41.472 40.789333 40.789333 0 0 1-41.642666 41.415111z"  horiz-adv-x="1024" />
      
      <glyph glyph-name="very-gitlab" unicode="&#59021;" d="M279.438222 734.833778l80.839111-275.000889h303.445334l80.839111 275.000889a15.189333 15.189333 0 0 0 29.013333 0.341333l132.551111-414.264889a18.944 18.944 0 0 0-6.542222-20.878222L512 4.778667l-387.584 295.253333a18.944 18.944 0 0 0-6.542222 20.878222l132.551111 414.264889a15.189333 15.189333 0 0 0 29.013333-0.341333z"  horiz-adv-x="1024" />
      
      <glyph glyph-name="very-clone" unicode="&#59032;" d="M576 223.971556h-384a95.971556 95.971556 0 0 0-96.028444 96.028444v384a95.971556 95.971556 0 0 0 96.028444 96.028444h384a95.971556 95.971556 0 0 0 96.028444-96.028444v-384a95.971556 95.971556 0 0 0-96.028444-96.028444z m-384 512a32.028444 32.028444 0 0 1-32.028444-31.971556v-384a31.971556 31.971556 0 0 1 32.028444-32.028444h384a31.971556 31.971556 0 0 1 32.028444 32.028444v384a32.028444 32.028444 0 0 1-32.028444 32.028444h-384zM832-32.028444h-384a95.971556 95.971556 0 0 0-96.028444 96.028444v384a95.971556 95.971556 0 0 0 96.028444 96.028444h384a95.971556 95.971556 0 0 0 96.028444-96.028444v-384a95.971556 95.971556 0 0 0-96.028444-96.028444z m-384 512a32.028444 32.028444 0 0 1-32.028444-31.971556v-384a31.971556 31.971556 0 0 1 32.028444-32.028444h384a31.971556 31.971556 0 0 1 32.028444 32.028444v384a32.028444 32.028444 0 0 1-32.028444 32.028444h-384z"  horiz-adv-x="1024" />
      
      <glyph glyph-name="very-itemadd1" unicode="&#59023;" d="M512 384m-512 0a512 512 0 1 1 1024 0 512 512 0 1 1-1024 0ZM512 603.456a36.544 36.544 0 0 1-36.608-36.608v-146.304H329.088a36.544 36.544 0 0 1 0-73.088h146.304v-146.304a36.544 36.544 0 1 1 73.152 0V347.456h146.24a36.544 36.544 0 1 1 0 73.088H548.544V566.848a36.544 36.544 0 0 1-36.608 36.608z"  horiz-adv-x="1024" />
      
      <glyph glyph-name="very-operatereduce1" unicode="&#59026;" d="M512 384m-512 0a512 512 0 1 1 1024 0 512 512 0 1 1-1024 0ZM292.571429 384a36.571429 36.571429 0 0 0 36.571428 36.571429h365.714286a36.571429 36.571429 0 1 0 0-73.142858H329.142857a36.571429 36.571429 0 0 0-36.571428 36.571429z"  horiz-adv-x="1024" />
      
      <glyph glyph-name="very-operateadd1" unicode="&#59027;" d="M512 384m-512 0a512 512 0 1 1 1024 0 512 512 0 1 1-1024 0ZM512 603.428571a36.571429 36.571429 0 0 1-36.571429-36.571428v-146.285714H329.142857a36.571429 36.571429 0 1 1 0-73.142858h146.285714v-146.285714a36.571429 36.571429 0 1 1 73.142858 0v146.285714h146.285714a36.571429 36.571429 0 1 1 0 73.142858h-146.285714V566.857143a36.571429 36.571429 0 0 1-36.571429 36.571428z"  horiz-adv-x="1024" />
      
      <glyph glyph-name="very-itemreduce1" unicode="&#59031;" d="M0 896m170.666667 0l682.666666 0q170.666667 0 170.666667-170.666667l0-682.666666q0-170.666667-170.666667-170.666667l-682.666666 0q-170.666667 0-170.666667 170.666667l0 682.666666q0 170.666667 170.666667 170.666667ZM405.589333 543.658667a37.632 37.632 0 0 1-53.248-53.248L458.794667 384l-106.453334-106.453333a37.632 37.632 0 1 1 53.248-53.205334L512 330.794667l106.453333-106.453334a37.632 37.632 0 0 1 53.205334 53.248L565.205333 384l106.453334 106.410667a37.632 37.632 0 0 1-53.248 53.248L512 437.205333 405.589333 543.658667z"  horiz-adv-x="1024" />
      
      <glyph glyph-name="very-crumb" unicode="&#59008;" d="M256 810.666667v-96.853334L697.002667 384.853333 256 54.186667V-42.666667l512 384.085334v85.162666L256 810.666667z"  horiz-adv-x="1024" />
      
      <glyph glyph-name="very-operateadd" unicode="&#59010;" d="M512 384m-512 0a512 512 0 1 1 1024 0 512 512 0 1 1-1024 0ZM512 603.428571a36.571429 36.571429 0 0 1-36.571429-36.571428v-146.285714H329.142857a36.571429 36.571429 0 1 1 0-73.142858h146.285714v-146.285714a36.571429 36.571429 0 1 1 73.142858 0v146.285714h146.285714a36.571429 36.571429 0 1 1 0 73.142858h-146.285714V566.857143a36.571429 36.571429 0 0 1-36.571429 36.571428z"  horiz-adv-x="1024" />
      
      <glyph glyph-name="very-itemreduce" unicode="&#59011;" d="M0 896m170.666667 0l682.666666 0q170.666667 0 170.666667-170.666667l0-682.666666q0-170.666667-170.666667-170.666667l-682.666666 0q-170.666667 0-170.666667 170.666667l0 682.666666q0 170.666667 170.666667 170.666667ZM405.589333 543.658667a37.632 37.632 0 0 1-53.248-53.248L458.794667 384l-106.453334-106.453333a37.632 37.632 0 1 1 53.248-53.205334L512 330.794667l106.453333-106.453334a37.632 37.632 0 0 1 53.205334 53.248L565.205333 384l106.453334 106.410667a37.632 37.632 0 0 1-53.248 53.248L512 437.205333 405.589333 543.658667z"  horiz-adv-x="1024" />
      
      <glyph glyph-name="very-inputdp" unicode="&#59012;" d="M530.602667 199.765333a18.602667 18.602667 0 0 0-13.141334 5.461334L333.226667 389.461333a18.602667 18.602667 0 1 0 26.282666 26.325334l171.093334-171.093334 171.093333 171.093334a18.602667 18.602667 0 0 0 26.325333-26.325334l-184.234666-184.234666a18.602667 18.602667 0 0 0-13.184-5.461334z"  horiz-adv-x="1024" />
      
      <glyph glyph-name="very-itemadd" unicode="&#59013;" d="M512 384m-512 0a512 512 0 1 1 1024 0 512 512 0 1 1-1024 0ZM512 603.456a36.544 36.544 0 0 1-36.608-36.608v-146.304H329.088a36.544 36.544 0 0 1 0-73.088h146.304v-146.304a36.544 36.544 0 1 1 73.152 0V347.456h146.24a36.544 36.544 0 1 1 0 73.088H548.544V566.848a36.544 36.544 0 0 1-36.608 36.608z"  horiz-adv-x="1024" />
      
      <glyph glyph-name="very-itemverify" unicode="&#59016;" d="M0 896m170.666667 0l682.666666 0q170.666667 0 170.666667-170.666667l0-682.666666q0-170.666667-170.666667-170.666667l-682.666666 0q-170.666667 0-170.666667 170.666667l0 682.666666q0 170.666667 170.666667 170.666667ZM406.869333 190.506667a42.666667 42.666667 0 0 1 60.330667 0l301.653333 301.653333a42.666667 42.666667 0 0 1-60.288 60.373333l-271.530666-271.530666-90.538667 90.496a42.666667 42.666667 0 0 1-60.330667-60.330667l120.704-120.661333z"  horiz-adv-x="1024" />
      
      <glyph glyph-name="very-operatereduce" unicode="&#59018;" d="M512 384m-512 0a512 512 0 1 1 1024 0 512 512 0 1 1-1024 0ZM292.571429 384a36.571429 36.571429 0 0 0 36.571428 36.571429h365.714286a36.571429 36.571429 0 1 0 0-73.142858H329.142857a36.571429 36.571429 0 0 0-36.571428 36.571429z"  horiz-adv-x="1024" />
      
      <glyph glyph-name="very-nodata" unicode="&#59020;" d="M173.634783 273.363478h11.353043a5.632 5.632 0 0 0 5.542957-5.632 5.565217 5.565217 0 0 0-5.520696-5.632h-11.397565v-11.397565a5.632 5.632 0 0 0-5.632-5.520696 5.565217 5.565217 0 0 0-5.632 5.520696v11.397565H150.928696a5.632 5.632 0 0 0-5.520696 5.632 5.565217 5.565217 0 0 0 5.520696 5.632h11.397565v11.397565a5.632 5.632 0 0 0 5.632 5.520696 5.565217 5.565217 0 0 0 5.632-5.520696v-11.397565z m744.20313 45.122783v11.375304a5.609739 5.609739 0 0 1-3.494956 5.12 5.565217 5.565217 0 0 1-2.137044 0.422957 5.632 5.632 0 0 1-5.654261-5.542957v-11.375304h-11.375304a5.587478 5.587478 0 0 1-5.12-3.494957 5.654261 5.654261 0 0 1 5.12-7.791304h11.375304v-11.397565c0-3.094261 2.537739-5.520696 5.654261-5.520696a5.632 5.632 0 0 1 5.632 5.520696v11.397565h11.397565a5.565217 5.565217 0 0 1 5.520696 5.632 5.632 5.632 0 0 1-5.520696 5.654261h-11.397565zM508.215652 132.429913H224.322783a11.241739 11.241739 0 0 0-11.24174 11.264c0 6.233043 5.12 11.286261 11.24174 11.286261h51.133217a44.78887 44.78887 0 0 0-6.010435 22.483478V504.58713a45.078261 45.078261 0 0 0 45.167305 45.056h33.792v11.330783a45.100522 45.100522 0 0 0 45.145043 45.056h270.536348a45.056 45.056 0 0 0 45.145043-45.056v-327.123478c0-8.192-2.181565-15.872-6.010434-22.483478h62.374956a11.264 11.264 0 1 0 0-22.572522h-135.301565v-11.330783c0-8.192-2.181565-15.872-6.010435-22.483478h6.054957c6.188522 0 11.241739-5.008696 11.241739-11.286261 0-6.233043-5.12-11.264-11.241739-11.264H570.991304a22.483478 22.483478 0 0 0-10.774261-32.367304 22.528 22.528 0 0 0-24.576 4.897391L508.193391 132.452174z m41.227131 22.550261h35.86226c12.399304 0 22.483478 10.017391 22.483479 22.594783V505.121391a21.815652 21.815652 0 0 1-21.793392 21.971479H313.766957a21.860174 21.860174 0 0 1-21.74887-21.971479v-327.546434c0-12.466087 10.150957-22.594783 22.438956-22.594783h171.186087l-5.787826 5.787826a22.528 22.528 0 0 0-5.876869 21.815652l-10.640696 10.662957a78.959304 78.959304 0 1 0 4.474435 122.991304 78.937043 78.937043 0 0 0 11.464348-107.074783l10.662956-10.640695a22.483478 22.483478 0 0 0 21.793392-5.854609l37.687652-37.687652z m80.873739 56.364522h33.925565a22.550261 22.550261 0 0 1 22.461217 22.572521v327.012174a22.483478 22.483478 0 0 1-22.461217 22.528H393.394087a22.572522 22.572522 0 0 1-22.438957-22.550261v-11.264h214.194087a45.056 45.056 0 0 0 45.145044-45.056v-293.242434zM232.804174 625.753043h16.806956c4.741565 0 8.570435-3.762087 8.570435-8.45913 0-4.674783-3.82887-8.45913-8.570435-8.45913h-16.806956v-16.806957a8.481391 8.481391 0 0 0-11.709217-7.880348 8.525913 8.525913 0 0 0-5.186783 7.880348V608.834783h-16.806957a8.503652 8.503652 0 0 0-8.570434 8.45913c0 4.674783 3.82887 8.45913 8.570434 8.45913h16.806957v16.806957c0 4.741565 3.739826 8.570435 8.45913 8.570435 4.674783 0 8.45913-3.82887 8.459131-8.570435v-16.806957zM100.329739 143.693913c0 6.233043 5.097739 11.286261 11.241739 11.286261h67.717565c6.188522 0 11.241739-5.008696 11.24174-11.286261 0-6.233043-5.12-11.264-11.24174-11.264H111.571478a11.241739 11.241739 0 0 0-11.241739 11.264zM455.902609 216.598261a56.364522 56.364522 0 1 1-79.693913 79.693913 56.364522 56.364522 0 0 1 79.693913-79.693913z m-118.806261 265.394087a11.286261 11.286261 0 0 0 11.264 11.264h124.037565a11.286261 11.286261 0 0 0 0-22.550261H348.382609a11.241739 11.241739 0 0 0-11.264 11.286261z m0-56.386783c0 6.233043 5.008696 11.264 11.197217 11.264h180.580174c6.166261 0 11.197217-4.986435 11.197218-11.264 0-6.233043-5.030957-11.286261-11.197218-11.286261h-180.580174a11.197217 11.197217 0 0 0-11.197217 11.286261z m0-56.386782c0 6.233043 5.030957 11.286261 11.241739 11.28626h78.981565a11.264 11.264 0 1 0 0-22.55026H348.382609a11.152696 11.152696 0 0 0-10.418087 6.945391 11.219478 11.219478 0 0 0-0.845913 4.318609z m-214.238609 67.673043a33.836522 33.836522 0 1 0 0 67.695304 33.836522 33.836522 0 0 0 0-67.717565z m0 16.918261a16.918261 16.918261 0 1 1 0 33.814261 16.918261 16.918261 0 0 1 0-33.836522z m699.102609 50.732522a33.836522 33.836522 0 1 0 0 67.650782 33.836522 33.836522 0 0 0 0-67.673043z m0 16.918261a16.873739 16.873739 0 0 1 15.649391 23.373913 16.918261 16.918261 0 1 1-15.649391-23.373913z"  horiz-adv-x="1024" />
      
      <glyph glyph-name="very_coursena" unicode="&#59009;" d="M993.670966 384.018815V723.997501c-0.075258 78.193216-63.480248 141.598207-141.673465 141.673465H172.002499C93.809282 865.558079 30.441921 802.190718 30.329034 723.997501v-679.957373c0.075258-78.193216 63.480248-141.598207 141.673465-141.673465h679.957373c78.193216 0.075258 141.598207 63.480248 141.673465 141.673465v339.640025c0 0.112887 0.037629 0.225774 0.037629 0.338662zM172.002499 809.00158h679.957373c46.923456-0.037629 84.96645-38.080623 85.004079-85.004079v-311.643993h-210.045493l-101.598501-101.598501L504.229596 431.845368l-96.669092-193.300555L294.221732 691.862272l-139.716753-279.508764H86.99842V723.997501c0.037629 46.923456 38.080623 84.96645 85.004079 85.004079zM851.959872-40.963951H172.002499c-46.923456 0.037629-84.96645 38.080623-85.004079 85.004079v311.643994h102.501598l86.923162 173.808694 113.301143-453.317459 130.008452 260.016904 105.587182-105.587183 125.041414 125.079044H936.963951v-311.643994c-0.037629-46.923456-38.080623-84.96645-85.004079-85.004079z"  horiz-adv-x="1024" />
      
      <glyph glyph-name="very-favg" unicode="&#59003;" d="M512 713.142857l85.138286-211.968 227.913143-15.469714-175.323429-146.468572 55.734857-221.513142L512 239.177143l-193.462857-121.453714 55.734857 221.513142-175.323429 146.468572 227.913143 15.469714L512 713.142857z"  horiz-adv-x="1024" />
      
      <glyph glyph-name="very-favb" unicode="&#59004;" d="M512 713.142857l85.138286-211.968 227.913143-15.469714-175.323429-146.468572 55.734857-221.513142L512 239.177143l-193.462857-121.453714 55.734857 221.513142-175.323429 146.468572 227.913143 15.469714L512 713.142857z"  horiz-adv-x="1024" />
      
      <glyph glyph-name="very-favr" unicode="&#59005;" d="M512 713.142857l85.138286-211.968 227.913143-15.469714-175.323429-146.468572 55.734857-221.513142L512 239.177143l-193.462857-121.453714 55.734857 221.513142-175.323429 146.468572 227.913143 15.469714L512 713.142857z"  horiz-adv-x="1024" />
      
      <glyph glyph-name="very-favbut" unicode="&#59006;" d="M512 640l66.194286-164.864 177.261714-12.032-136.338286-113.92 43.373715-172.288L512 271.36l-150.454857-94.464 43.337143 172.288-136.338286 113.92 177.261714 12.032L512 640z"  horiz-adv-x="1024" />
      
      <glyph glyph-name="very-close" unicode="&#58948;" d="M10.942488 885.075798a37.266509 37.266509 0 0 1 0-52.684614L458.834776 384.498896 10.905952-63.429927A37.266509 37.266509 0 1 1 63.663637-116.04147L511.519389 331.814283l447.928824-447.928824a37.266509 37.266509 0 1 1 52.648078 52.721149L564.204003 384.498896l447.928824 447.928824A37.266509 37.266509 0 1 1 959.375142 885.039262L511.519389 437.18351 63.590566 885.112334A37.266509 37.266509 0 0 1 10.979024 885.075798z"  horiz-adv-x="1025" />
      
      <glyph glyph-name="very-action" unicode="&#58951;" d="M0 896m95.868331 0l1406.068852 0q95.868331 0 95.868331-95.868331l0-447.385544q0-95.868331-95.868331-95.868331l-1406.068852 0q-95.868331 0-95.868331 95.868331l0 447.385544q0 95.868331 95.868331 95.868331ZM415.429434 772.170073c-108.091543 0-195.731175-87.639632-195.731176-195.731176S307.337891 380.707722 415.429434 380.707722 611.160609 468.347354 611.160609 576.438897 523.520977 772.170073 415.429434 772.170073z m62.953537-198.751028l-95.420945-69.42465a3.515172 3.515172 0 0 0-5.544386 2.844094V645.623876a3.483216 3.483216 0 0 0 5.544386 2.828116l95.420945-69.376716a3.45126 3.45126 0 0 0 0-5.640253z"  horiz-adv-x="2560" />
      
      <glyph glyph-name="very-creation" unicode="&#58952;" d="M544 608h-64v-192H288v-64h192v-192h64v192h192v64h-192V608z"  horiz-adv-x="1024" />
      
      <glyph glyph-name="very-amen" unicode="&#58953;" d="M223.829333 71.850667a23.978667 23.978667 0 0 1 16.938667 40.917333 24.533333 24.533333 0 0 1-33.92 0 23.978667 23.978667 0 0 1 16.981333-40.96zM152.533333 31.786667a96 96 0 0 1 107.946667-24.533334c11.648 4.821333 22.186667 11.861333 31.061333 20.821334l320.469334 320.512c22.186667-7.466667 45.226667-11.264 68.864-11.264a213.76 213.76 0 0 1 152.192 63.061333 216.661333 216.661333 0 0 1 44.245333 240.085333 23.978667 23.978667 0 0 1-38.869333 7.210667l-92.416-92.373333a24.533333 24.533333 0 0 0-33.92 0l-28.8 28.8a24.021333 24.021333 0 0 0 0 33.92l92.501333 92.586666a23.978667 23.978667 0 0 1-7.253333 38.869334c-70.357333 31.146667-158.72 20.906667-218.965334-25.728a216.405333 216.405333 0 0 1-73.002666-239.701334L158.933333 166.4c-37.674667-37.674667-40.448-96.768-6.4-134.613333z m40.32 100.693333l328.618667 328.533333a23.978667 23.978667 0 0 1 5.12 26.368 168.32 168.32 0 0 0 52.352 198.4 166.741333 166.741333 0 0 0 101.674667 34.218667c11.178667 0 22.4-1.109333 33.408-3.328l-64.682667-64.682667a72.106667 72.106667 0 0 1 0-101.802666l28.8-28.8c27.221333-27.264 74.624-27.264 101.845333 0l64.597334 64.554666a168.405333 168.405333 0 0 0-45.44-151.637333 166.101333 166.101333 0 0 0-118.229334-48.981333c-22.528 0-44.8 4.48-65.536 13.312a24.064 24.064 0 0 1-26.325333-5.12l-331.434667-331.52c-18.773333-18.730667-51.626667-17.92-69.418666 1.92-16.682667 18.517333-14.634667 49.28 4.693333 68.565333z"  horiz-adv-x="1024" />
      
      <glyph glyph-name="very-corelation" unicode="&#58955;" d="M481.877333 367.189333a16.938667 16.938667 0 0 0-13.056 5.632 118.741333 118.741333 0 0 0-35.498666 83.968c0 31.744 13.056 61.610667 35.498666 84.010667l106.368 106.410667A118.741333 118.741333 0 0 0 659.2 682.666667c31.744 0 61.610667-13.056 84.010667-35.456a118.314667 118.314667 0 0 0 0-168.021334l-48.554667-48.512a18.048 18.048 0 0 0-26.112 0 18.048 18.048 0 0 0 0 26.112l48.512 48.554667a82.261333 82.261333 0 0 1 0 115.712 81.92 81.92 0 0 1-57.856 24.277333 81.92 81.92 0 0 1-57.856-24.277333L494.933333 514.645333a81.92 81.92 0 0 1-24.277333-57.856c0-22.4 9.344-42.922667 24.277333-57.856a18.048 18.048 0 0 0 0-26.112 16.938667 16.938667 0 0 0-13.056-5.632zM375.466667 160c-29.866667 0-61.610667 11.178667-84.010667 35.456A118.741333 118.741333 0 0 0 256 279.466667c0 31.744 13.056 61.610667 35.456 84.010666l48.554667 48.512a18.048 18.048 0 0 0 26.112 0 18.048 18.048 0 0 0 0-26.112l-48.512-48.554666a81.92 81.92 0 0 1-24.277334-57.856 82.261333 82.261333 0 0 1 139.989334-57.856l106.410666 106.368c14.933333 14.933333 24.277333 35.498667 24.277334 57.898666a81.92 81.92 0 0 1-24.277334 57.856 18.048 18.048 0 0 0 0 26.112 18.048 18.048 0 0 0 26.112 0c22.4-22.357333 35.498667-52.266667 35.498667-83.968 0-31.744-13.056-61.610667-35.498667-84.010666l-106.368-106.410667a122.112 122.112 0 0 0-84.010666-35.456z"  horiz-adv-x="1024" />
      
      <glyph glyph-name="very-attention" unicode="&#58956;" d="M511.772444-14.222222a396.060444 396.060444 0 0 0-276.138666 111.502222 396.743111 396.743111 0 0 0-121.742222 279.267556A396.060444 396.060444 0 0 0 225.28 660.309333a395.662222 395.662222 0 0 0 124.871111 87.608889 395.491556 395.491556 0 0 0 154.396445 34.247111 396.117333 396.117333 0 0 0 283.761777-111.388444 395.946667 395.946667 0 0 0 87.608889-124.984889c21.731556-48.696889 33.223111-100.693333 34.247111-154.396444a395.776 395.776 0 0 0-28.444444-155.591112 396.060444 396.060444 0 0 0-82.944-128.170666 396.174222 396.174222 0 0 0-124.984889-87.608889A395.491556 395.491556 0 0 0 519.395556-14.222222h-7.623112z m0.455112 753.777778c-2.275556 0-4.551111 0-6.826667-0.113778A353.336889 353.336889 0 0 1 256 630.613333a354.929778 354.929778 0 0 1-99.498667-253.326222A353.393778 353.393778 0 0 1 265.386667 128a354.872889 354.872889 0 0 1 253.212444-99.384889 353.28 353.28 0 0 1 249.344 108.828445 354.929778 354.929778 0 0 1 99.441778 253.212444A353.28 353.28 0 0 1 758.556444 640a354.872889 354.872889 0 0 1-246.328888 99.555556zM512 165.205333a35.271111 35.271111 0 0 0-11.662222 1.877334 40.846222 40.846222 0 0 0-9.784889 6.712889 25.941333 25.941333 0 0 0-6.826667 9.784888 27.192889 27.192889 0 0 0-2.446222 12.288c0 7.964444 3.015111 15.928889 9.159111 21.447112a30.72 30.72 0 0 0 42.894222 0 28.899556 28.899556 0 0 0 9.102223-21.447112c0-4.266667-0.568889-8.533333-2.446223-12.288a25.941333 25.941333 0 0 0-6.769777-9.784888 29.582222 29.582222 0 0 0-21.219556-8.533334z m0 134.656a21.390222 21.390222 0 0 0-21.390222 21.390223V572.472889a21.390222 21.390222 0 1 0 42.780444 0v-251.221333A21.390222 21.390222 0 0 0 512 299.804444z"  horiz-adv-x="1024" />
      
      <glyph glyph-name="very-delitracking" unicode="&#58957;" d="M811.733333 560h-159.146666v-46.933333h121.856l59.477333-187.733334h-169.685333l-70.229334-93.866666h-164.010666l-70.229334 93.866666H190.08l59.477333 187.733334h121.898667v46.933333H212.224L136.533333 301.610667l76.074667-281.344h598.784l76.074667 281.344-75.733334 258.389333z m-36.949333-492.8H249.173333l-58.581333 211.2h145.664l70.229333-93.866667h210.816l70.272 93.866667h145.621334l-58.453334-211.2z m-380.117333 328.533333h234.666666v211.2h93.866667L512 747.733333l-211.2-140.8h93.866667v-211.2z m47.061333 248.661334L512 691.328l70.314667-46.933333 0.085333-201.728h-140.8l0.128 201.728z"  horiz-adv-x="1024" />
      
      <glyph glyph-name="very-collaboratiom" unicode="&#58958;" d="M826.752 365.866667l0.128 8.96a314.581333 314.581333 0 0 1-128.341333 253.525333A190.08 190.08 0 0 1 512 853.333333a190.037333 190.037333 0 0 1-186.453333-224.981333 314.581333 314.581333 0 0 1-128.256-262.485333A190.037333 190.037333 0 0 1 42.666667 179.370667a190.037333 190.037333 0 0 1 189.824-189.866667 189.866667 189.866667 0 0 1 163.072 92.8 313.045333 313.045333 0 0 1 116.48-22.357333 313.173333 313.173333 0 0 1 116.48 22.357333 189.866667 189.866667 0 0 1 163.072-92.757333 190.037333 190.037333 0 0 1 189.824 189.824 190.165333 190.165333 0 0 1-154.666667 186.453333zM512 800.981333a137.642667 137.642667 0 0 0 137.472-137.472A137.642667 137.642667 0 0 0 512 526.037333a137.642667 137.642667 0 0 0-137.472 137.472A137.642667 137.642667 0 0 0 512 800.981333z m-279.509333-759.04a137.642667 137.642667 0 0 0-137.472 137.472 137.642667 137.642667 0 0 0 137.472 137.472 137.642667 137.642667 0 0 0 137.472-137.472 137.642667 137.642667 0 0 0-137.472-137.472zM512 112.341333a260.693333 260.693333 0 0 0-96.085333 18.304 190.037333 190.037333 0 0 1-166.314667 237.738667l-0.085333 6.442667a261.973333 261.973333 0 0 0 94.122666 201.216A189.952 189.952 0 0 1 512 473.685333a189.952 189.952 0 0 1 168.362667 102.357334 261.973333 261.973333 0 0 0 94.037333-207.658667 190.08 190.08 0 0 1-166.314667-237.738667 260.693333 260.693333 0 0 0-96.085333-18.346666z m279.509333-70.4a137.642667 137.642667 0 0 0-137.472 137.472 137.642667 137.642667 0 0 0 137.472 137.472 137.642667 137.642667 0 0 0 137.472-137.472 137.642667 137.642667 0 0 0-137.472-137.472z"  horiz-adv-x="1024" />
      
      <glyph glyph-name="very-build" unicode="&#58959;" d="M504.917333 791.082667a28.842667 28.842667 0 0 0 27.861334 0l346.88-196.48a26.752 26.752 0 0 0 13.653333-23.125334v-400.384a26.794667 26.794667 0 0 0-13.653333-23.125333l-346.88-200.149333a32.768 32.768 0 0 0-13.653334-3.84 24.96 24.96 0 0 0-13.653333 3.84l-360.618667 197.973333a27.306667 27.306667 0 0 0-14.208 23.68V559.786667a27.861333 27.861333 0 0 0 15.872 25.216l358.4 206.08z m14.165334-54.229334L185.301333 544.170667v-359.125334l333.312-182.997333 322.261334 184.661333V555.946667L519.082667 736.853333z m163.882666-213.034666a27.733333 27.733333 0 0 0 37.205334-9.472 26.666667 26.666667 0 0 0-8.789334-36.736l-170.410666-100.906667v-192.213333a26.794667 26.794667 0 0 0-16.469334-26.666667 27.605333 27.605333 0 0 0-36.650666 15.914667 26.965333 26.965333 0 0 0-1.536 10.752V376.746667L316.416 477.568a26.88 26.88 0 0 0-9.813333 37.418667 27.861333 27.861333 0 0 0 38.229333 8.789333l168.234667-99.882667 169.898666 99.84v0.085334z"  horiz-adv-x="1024" />
      
      <glyph glyph-name="very-discorela" unicode="&#58962;" d="M531.285333 640a232.618667 232.618667 0 1 1 0-465.194667 232.618667 232.618667 0 0 1 0 465.194667z m0-430.336a197.717333 197.717333 0 1 0 0 395.434667 197.717333 197.717333 0 0 0 0-395.434667zM641.749333 424.832H420.778667a17.450667 17.450667 0 0 1 0-34.901333h221.013333a17.450667 17.450667 0 0 1 0 34.901333z"  horiz-adv-x="1024" />
      
      <glyph glyph-name="very-editsuc" unicode="&#58963;" d="M406.869333 147.84a42.666667 42.666667 0 0 1 60.330667 0l301.653333 301.653333a42.666667 42.666667 0 0 1-60.288 60.373334l-271.530666-271.530667-90.538667 90.496a42.666667 42.666667 0 0 1-60.330667-60.330667l120.704-120.661333z"  horiz-adv-x="1024" />
      
      <glyph glyph-name="very-editing" unicode="&#58964;" d="M428.8 325.802667a42.666667 42.666667 0 0 0 0 60.330666l181.034667 181.034667a42.666667 42.666667 0 1 0 60.330666-60.330667l-181.034666-181.034666a42.666667 42.666667 0 0 0-60.330667 0zM398.634667 295.637333a42.666667 42.666667 0 0 0 0-60.330666l-30.165334-30.165334a42.666667 42.666667 0 0 0-60.330666 60.330667l30.165333 30.165333a42.666667 42.666667 0 0 0 60.330667 0z"  horiz-adv-x="1024" />
      
      <glyph glyph-name="very-filtrate" unicode="&#58965;" d="M336.896 581.485714a10.971429 10.971429 0 0 1-8.777143-17.627428l139.776-183.369143a54.857143 54.857143 0 0 0 11.227429-33.243429v-85.796571a10.898286 10.898286 0 0 1 3.181714-7.753143l62.646857-62.646857v156.196571c0 11.995429 3.949714 23.698286 11.190857 33.243429l139.739429 183.369143a10.934857 10.934857 0 0 1-2.962286 15.981714 10.971429 10.971429 0 0 1-5.814857 1.645714H336.859429h0.036571z m0 21.942857h350.208a32.914286 32.914286 0 0 0 26.185143-52.882285l-139.702857-183.369143a32.914286 32.914286 0 0 1-6.729143-19.968v-156.16a21.942857 21.942857 0 0 0-37.449143-15.506286l-62.646857 62.610286a32.914286 32.914286 0 0 0-9.618286 23.259428v85.796572a32.914286 32.914286 0 0 1-6.729143 19.968l-139.702857 183.405714A32.914286 32.914286 0 0 0 336.822857 603.428571h0.036572z"  horiz-adv-x="1024" />
      
      <glyph glyph-name="very-environ" unicode="&#58966;" d="M864-85.333333H160A117.674667 117.674667 0 0 0 42.666667 32V736A117.674667 117.674667 0 0 0 160 853.333333h704A117.674667 117.674667 0 0 0 981.333333 736v-704A117.674667 117.674667 0 0 0 864-85.333333z m58.666667 827.178666c0 29.354667-23.466667 52.821333-58.666667 52.821334H160c-35.2 0-58.666667-23.466667-58.666667-52.778667V618.666667h821.333334V741.888z m0-181.845333H101.333333V32c0-35.2 23.466667-58.666667 58.666667-58.666667h704c35.2 0 58.666667 29.354667 58.666667 58.666667V560z m-193.621334-416.512c-11.690667-11.776-23.466667-11.776-35.2 0-5.845333 5.845333-5.845333 11.690667-5.845333 17.578667 0 5.888 0 11.733333 5.845333 17.621333l129.109334 105.6-129.109334 105.557333c-5.845333 5.888-5.845333 11.733333-5.845333 17.621334 0 5.845333 0 11.733333 5.845333 17.578666 11.776 11.776 23.466667 11.776 35.2 0l152.576-123.178666c5.845333-5.845333 5.845333-11.733333 5.845334-17.578667 0-5.888 0-11.776-5.845334-17.621333l-152.576-123.178667z m-252.245333-76.288c-5.888-11.733333-17.621333-11.733333-35.2-11.733333-11.733333 5.845333-17.578667 23.466667-11.733333 35.2l123.221333 422.4s23.466667 17.578667 35.2 11.733333c5.845333-5.888 11.690667-5.888 11.690667-17.621333v-17.578667l-123.178667-422.4z m-146.688 76.288c-11.690667-11.776-23.466667-11.776-35.2 0L142.378667 266.666667c-5.845333 0-5.845333 11.733333-5.845334 17.578666 0 5.888 0 11.733333 5.845334 17.621334l152.533333 123.221333c11.776 11.733333 23.466667 11.733333 35.2 0 5.888-5.888 5.888-11.733333 5.888-17.621333 0-5.888 0-11.733333-5.888-17.621334l-129.024-105.6 129.024-105.6c5.888-5.845333 5.888-11.690667 5.888-17.578666 0-5.845333 0-11.733333-5.888-17.578667zM834.688 736c-17.578667 0-29.312-11.733333-29.312-29.354667 0-17.578667 11.733333-29.312 29.354667-29.312 17.578667 0 29.312 11.733333 29.312 29.354667 0 17.578667-11.733333 29.312-29.354667 29.312z m-117.333333 0c-17.578667 0-29.312-11.733333-29.312-29.354667 0-17.578667 11.733333-29.312 29.354666-29.312 17.578667 0 29.312 11.733333 29.312 29.354667 0 17.578667-11.733333 29.312-29.354666 29.312z m-117.333334 0c-17.578667 0-29.312-11.733333-29.312-29.354667 0-17.578667 11.733333-29.312 29.354667-29.312 17.578667 0 29.312 11.733333 29.312 29.354667 0 17.578667-11.733333 29.312-29.354667 29.312z"  horiz-adv-x="1024" />
      
      <glyph glyph-name="very-flyout" unicode="&#58967;" d="M719.146667 155.776H276.992A20.992 20.992 0 0 0 256 176.768V618.922667C256 630.613333 265.386667 640 276.992 640h183.253333a20.992 20.992 0 1 0 0-42.026667H297.984v-400.170666h400.213333v161.28a20.992 20.992 0 1 0 41.984 0v-182.272c0-11.605333-9.386667-20.992-20.992-20.992zM740.096 620.373333v0.298667a22.741333 22.741333 0 0 1-0.426667 2.858667V623.786667a23.466667 23.466667 0 0 1-0.896 2.858666c-0.341333 0.981333-0.853333 1.834667-1.28 2.730667 0 0.042667-0.085333 0.042667-0.085333 0.128a20.736 20.736 0 0 1-1.578667 2.389333l-0.170666 0.213334-0.810667 0.981333-0.042667 0.128a6.954667 6.954667 0 0 1-0.938666 0.938667l-0.213334 0.213333-0.938666 0.853333-0.085334 0.085334c-0.341333 0.298667-0.682667 0.597333-1.109333 0.853333l-0.213333 0.128a22.357333 22.357333 0 0 1-2.517334 1.536l-0.042666 0.042667a17.237333 17.237333 0 0 1-5.802667 1.877333l-0.170667 0.085333-1.408 0.170667h-0.170666L720.042667 640h-147.84a20.992 20.992 0 1 1 0-41.984h96.256l-185.173334-185.301333a20.906667 20.906667 0 0 1 14.848-35.797334 21.12 21.12 0 0 1 14.890667 6.101334l185.173333 185.216v-94.933334a20.992 20.992 0 1 1 41.984 0V618.922667c0 0.469333 0 1.024-0.085333 1.493333z"  horiz-adv-x="1024" />
      
      <glyph glyph-name="very-more" unicode="&#58968;" d="M576 608a64 64 0 1 0-128 0 64 64 0 0 0 128 0z m0-224a64 64 0 1 0-128 0 64 64 0 0 0 128 0z m-64-288a64 64 0 1 1 0 128 64 64 0 0 1 0-128z"  horiz-adv-x="1024" />
      
      <glyph glyph-name="very-pdmpro" unicode="&#58969;" d="M512 192L179.456 480h665.088L512 192z"  horiz-adv-x="1024" />
      
      <glyph glyph-name="very-morepipe" unicode="&#58970;" d="M576 576a64 64 0 1 0-128 0 64 64 0 0 0 128 0z m0-192a64 64 0 1 0-128 0 64 64 0 0 0 128 0z m-64-256a64 64 0 1 1 0 128 64 64 0 0 1 0-128z"  horiz-adv-x="1024" />
      
      <glyph glyph-name="very-pdm" unicode="&#58971;" d="M512 576l332.544-288H179.456L512 576z"  horiz-adv-x="1024" />
      
      <glyph glyph-name="very-notification" unicode="&#58972;" d="M475.47762811 4.753117810000049l-0.1608796-1.55516963a41.39968793 41.39968793 0 0 1 34.69637058-40.75616947l6.70331736-0.58989194a41.29243487 41.29243487 0 0 1 41.3460614 42.90123104h62.04590535a103.49921983 103.49921983 0 0 0-206.35492119-9.92090969l-0.48263885 9.92090969h62.20678495zM552.53896436 866.63884895v-70.78703118a344.76501778 344.76501778 0 0 0 308.88886333-342.94171543v-344.65776471l68.96372884-0.10725309v-68.91010232H102.98768981v68.91010232l68.96372887 0.10725309v344.65776471a344.76501778 344.76501778 0 0 0 310.06864718 343.04896853L482.0736924 866.63884895h70.46527196z m-35.82252791-137.92745772a275.80128891 275.80128891 0 0 1-275.80128892-275.80128889v-344.65776471h551.60257784v344.65776471a275.80128891 275.80128891 0 0 1-275.80128892 275.80128889z"  horiz-adv-x="1024" />
      
      <glyph glyph-name="very-selection" unicode="&#58973;" d="M512 676.571429c82.724571-2.194286 151.625143-30.793143 206.701714-85.869715C773.778286 535.625143 802.377143 466.724571 804.571429 384c-2.194286-82.724571-30.793143-151.625143-85.869715-206.701714C663.625143 122.221714 594.724571 93.622857 512 91.428571c-82.724571 2.194286-151.625143 30.793143-206.701714 85.869715C250.221714 232.374857 221.622857 301.275429 219.428571 384c2.194286 82.724571 30.793143 151.625143 85.869715 206.701714C360.374857 645.778286 429.275429 674.377143 512 676.571429z m-36.571429-350.025143l-64.658285 64.621714a25.819429 25.819429 0 0 1-17.92 7.204571 24.137143 24.137143 0 0 1-17.664-7.533714 23.771429 23.771429 0 0 1-7.497143-17.298286c0-6.509714 2.377143-12.397714 7.168-17.627428l82.944-82.944c4.754286-4.754286 10.642286-7.168 17.627428-7.168 6.948571 0 12.836571 2.377143 17.627429 7.168l171.776 171.776a23.405714 23.405714 0 0 1 6.217143 23.844571 22.893714 22.893714 0 0 1-17.664 17.627429 23.405714 23.405714 0 0 1-23.844572-6.217143L475.428571 326.546286z"  horiz-adv-x="1024" />
      
      <glyph glyph-name="very-quiz" unicode="&#58975;" d="M512 729.258667A345.656889 345.656889 0 0 0 857.258667 384 345.656889 345.656889 0 0 0 512 38.741333 345.656889 345.656889 0 0 0 166.741333 384 345.656889 345.656889 0 0 0 512 729.258667zM512 782.222222C292.181333 782.222222 113.777778 603.818667 113.777778 384s178.403556-398.222222 398.222222-398.222222 398.222222 178.403556 398.222222 398.222222-178.403556 398.222222-398.222222 398.222222z m26.680889-453.575111s0.398222 10.752 7.168 18.716445l10.752 8.362666c25.884444 19.911111 54.954667 42.211556 54.954667 99.953778a99.555556 99.555556 0 0 1-199.111112 0 26.680889 26.680889 0 1 1 53.361778 0 46.648889 46.648889 0 0 0 93.184 0c0-31.459556-10.752-39.424-34.247111-57.742222-4.380444-3.185778-8.760889-6.769778-13.141333-10.353778l-2.389334-2.389333a86.129778 86.129778 0 0 1-22.698666-56.547556c0-14.734222 11.946667-26.680889 26.680889-26.680889 13.539556 0 25.486222 11.946667 25.486222 26.680889zM512 262.144a34.702222 34.702222 0 1 1 0-69.347556 34.702222 34.702222 0 0 1 0 69.347556z"  horiz-adv-x="1024" />
      
      <glyph glyph-name="very-host-1" unicode="&#58977;" d="M896 566.857143h-768A54.857143 54.857143 0 0 0 73.142857 621.714286v109.714285A54.857143 54.857143 0 0 0 128 786.285714h768A54.857143 54.857143 0 0 0 950.857143 731.428571v-109.714285A54.857143 54.857143 0 0 0 896 566.857143z m-82.285714 150.857143a41.142857 41.142857 0 1 1 0-82.285715 41.142857 41.142857 0 0 1 0 82.285715z m-109.714286 0a41.142857 41.142857 0 1 1 0-82.285715 41.142857 41.142857 0 0 1 0 82.285715zM896 292.571429h-768A54.857143 54.857143 0 0 0 73.142857 347.428571v109.714286a54.857143 54.857143 0 0 0 54.857143 54.857143h768A54.857143 54.857143 0 0 0 950.857143 457.142857v-109.714286a54.857143 54.857143 0 0 0-54.857143-54.857142z m-82.285714 150.857142a41.142857 41.142857 0 1 1 0-82.285714 41.142857 41.142857 0 0 1 0 82.285714z m-109.714286 0a41.142857 41.142857 0 1 1 0-82.285714 41.142857 41.142857 0 0 1 0 82.285714zM896 18.285714h-768A54.857143 54.857143 0 0 0 73.142857 73.142857v109.714286A54.857143 54.857143 0 0 0 128 237.714286h768a54.857143 54.857143 0 0 0 54.857143-54.857143v-109.714286a54.857143 54.857143 0 0 0-54.857143-54.857143z m-82.285714 150.857143a41.142857 41.142857 0 1 1 0-82.285714 41.142857 41.142857 0 0 1 0 82.285714z m-109.714286 0a41.142857 41.142857 0 1 1 0-82.285714 41.142857 41.142857 0 0 1 0 82.285714z"  horiz-adv-x="1024" />
      
      <glyph glyph-name="very-limipower" unicode="&#58978;" d="M542.464 262.101333V170.666667a30.464 30.464 0 0 0-60.928 0v217.173333a121.898667 121.898667 0 1 0 60.928 0v-64.768h60.970667a30.506667 30.506667 0 0 0 0-61.013333h-60.970667v0.042666zM167.125333 695.722667L512 810.666667l344.874667-114.944a30.464 30.464 0 0 0 20.864-28.885334v-343.765333C877.738667 79.402667 540.8-42.666667 512-42.666667c-28.842667 0-365.696 122.154667-365.696 365.738667V666.837333a30.464 30.464 0 0 0 20.821333 28.885334z m40.106667-372.693334c0-83.84 53.205333-159.786667 145.877333-224.085333a653.653333 653.653333 0 0 1 113.536-62.677333c15.018667-6.4 28.757333-11.605333 39.850667-15.104 5.546667-1.834667 10.154667-2.858667 5.504-2.858667-4.650667 0-0.042667 1.066667 5.504 2.858667 11.093333 3.498667 24.832 8.704 39.850667 15.104 39.808 17.066667 77.866667 38.058667 113.536 62.677333 92.672 64.298667 145.877333 140.16 145.877333 224.128V644.864L512 746.368l-304.768-101.546667v-321.792zM512 445.013333a60.970667 60.970667 0 1 1 0.042667 121.898667H512a60.928 60.928 0 0 1 0-121.898667z"  horiz-adv-x="1024" />
      
      <glyph glyph-name="very-uman" unicode="&#58980;" d="M512 725.333A170.667 170.667 0 1 1 512 384a170.667 170.667 0 0 1 0 341.333zM256 554.6669999999999a256 256 0 1 0 512 0 256 256 0 0 0-512 0zM341.333 128a128 128 0 0 1-128-128A42.667 42.667 0 1 0 128 0a213.333 213.333 0 0 0 213.333 213.333h341.334A213.333 213.333 0 0 0 896 0a42.667 42.667 0 1 0-85.333 0 128 128 0 0 1-128 128H341.333z"  horiz-adv-x="1024" />
      
      <glyph glyph-name="very-help" unicode="&#58981;" d="M0 896m105.70328 0l1268.439365 0q105.70328 0 105.70328-105.70328l0-528.516402q0-105.70328-105.70328-105.703281l-1268.439365 0q-105.70328 0-105.70328 105.703281l0 528.516402q0 105.70328 105.70328 105.70328ZM211.406561 737.445079v-384.75994h60.25087V505.426379c0 23.254722 5.285164 41.752796 16.384008 56.551255 10.570328 14.798459 25.368787 22.197689 44.395378 22.197689 20.61214 0 35.939115-6.342197 46.509443-19.555107 8.984779-12.155877 13.741426-30.125435 13.741427-53.380157v-158.55492h60.250869v169.125249c0 36.467632-7.927746 63.950485-23.254721 82.448558-16.384008 19.555107-41.224279 29.068402-74.520813 29.068402-17.441041 0-32.768017-3.171098-45.980927-10.041811-14.798459-7.39923-27.482853-18.498074-37.524664-33.82505V737.445079H211.406561zM632.739836 633.327348c-40.695763 0-72.935263-13.741426-96.189985-41.752795-24.311754-27.482853-35.939115-61.307903-35.939115-102.003666 0-45.452411 12.684394-80.863009 38.053181-106.760313 23.783238-24.840271 56.022739-37.524665 96.718501-37.524665 36.467632 0 66.593067 10.570328 90.904821 31.182468 19.02659 16.912525 31.710984 38.581697 38.053181 63.950485h-60.25087c-7.39923-15.326976-15.326976-26.42582-24.311754-33.296534-11.627361-8.456262-26.42582-12.684394-44.923894-12.684393-21.669172 0-38.581697 6.870713-50.209058 20.083623-11.627361 13.21291-18.498074 32.768017-20.61214 58.136804h204.535848c0 49.152025-11.098844 87.733723-32.768017 115.216576-23.783238 30.653951-58.136804 45.452411-103.060699 45.45241z m1.585549-49.152025c42.281312 0 66.06455-21.669172 71.349715-66.06455h-140.585363c3.699615 21.669172 11.098844 38.053181 22.197689 49.152025 11.627361 11.627361 26.954336 16.912525 47.037959 16.912525zM821.578747 737.445079v-384.75994h60.250869V737.445079h-60.250869zM1088.955194 633.327348c-35.939115 0-63.421968-12.155877-82.448558-36.467631v29.068402h-56.022739v-377.889228h60.25087V390.209803c22.197689-29.596919 49.680542-44.923894 81.391526-44.923894 39.110214 0 70.292681 14.269943 92.49037 42.809829 20.61214 26.42582 31.182468 59.722353 31.182468 99.8896 0 42.281312-10.570328 76.106362-31.710984 102.532182-23.254722 28.539886-54.965706 42.809829-95.132953 42.809828z m-8.984779-48.623509c26.42582 0 45.980927-9.513295 58.665321-28.539885 10.041812-15.855492 15.326976-38.581697 15.326976-68.178616s-5.81368-52.323124-16.912525-68.178616c-12.684394-16.912525-32.768017-25.897304-59.193837-25.897304-19.555107 0-35.410599 7.927746-48.094993 23.783238-14.269943 17.441041-21.140656 40.695763-21.140656 69.235649v4.228131c0 27.482853 5.285164 49.152025 16.912525 65.536034 12.684394 19.02659 30.653951 28.011369 54.437189 28.011369z"  horiz-adv-x="2048" />
      
      <glyph glyph-name="very-version" unicode="&#58982;" d="M512.042667 7.594667a101.973333 101.973333 0 0 0-66.389334 23.466666l-375.338666 319.914667c-34.474667 29.44-37.034667 75.989333-5.845334 108.202667l231.850667 237.397333C314.282667 715.008 340.693333 725.333333 368.64 725.333333h286.549333c27.861333 0 54.272-10.666667 72.277334-28.757333l231.850666-237.397333c31.573333-32.213333 29.013333-78.506667-5.888-108.202667l-374.954666-319.914667a101.973333 101.973333 0 0 0-66.389334-23.466666zM368.64 675.925333c-10.666667 0-20.906667-4.053333-27.861333-11.264L108.8 427.306667c-12.117333-12.202667-11.008-30.336 2.218667-41.6l375.296-319.616c6.997333-5.973333 15.786667-9.088 25.685333-9.088a39.466667 39.466667 0 0 1 25.685333 9.088l375.296 319.914666c13.226667 11.264 14.336 29.098667 2.218667 41.6l-231.850667 237.354667a38.357333 38.357333 0 0 1-27.904 11.264H368.64v-0.298667zM498.517333 322.602667l-151.509333 136.618666a15.786667 15.786667 0 0 0-3.84 19.456c6.4 11.093333 21.802667 12.586667 30.592 4.693334l124.8-112.512a20.48 20.48 0 0 1 26.752 0l124.8 112.512a20.224 20.224 0 0 0 30.506667-4.693334c3.84-6.4 2.133333-14.336-3.754667-19.456l-151.552-136.618666a20.48 20.48 0 0 0-26.752 0z"  horiz-adv-x="1024" />
      
      <glyph glyph-name="very-options" unicode="&#58983;" d="M182.0710998 4.699596000000042c0-16.20186521 12.66691269-28.86877927 28.86877791-28.86877926 16.26078154 0 28.92769422 12.66691269 28.92769558 28.86877926V577.2440708500001a109.34786377 109.34786377 0 0 1-28.2207051 215.04294371c-60.56551916 0-108.52304196-49.37150381-108.52304197-109.2889488 0-50.07849431 33.81771277-92.38009172 79.65426409-105.04700442v-573.19254901H182.0710998zM159.50631872 682.93915081c0 28.16178877 23.27177022 51.43355899 51.49247532 51.43355896 28.16178877 0 51.43355899-23.27177022 51.43355895-51.43355896a51.72813789 51.72813789 0 0 0-51.43355895-51.49247532 51.72813789 51.72813789 0 0 0-51.49247532 51.49247532zM511.2930095 792.16918326a28.57419897 28.57419897 0 0 1-28.86877927-28.86877926v-297.52516979a109.11220117 109.11220117 0 0 1 0-210.09401021v-251.68861851c0-16.20186521 12.66691269-28.86877927 28.86877927-28.86877927s28.86877927 12.66691269 28.86877927 28.86877927v251.68861851a109.76027534 109.76027534 0 0 1 81.12716003 105.75399629c0 50.78548481-34.58361824 93.08708222-81.06824507 105.75399491V763.300404a28.57419897 28.57419897 0 0 1-28.86877791 28.86877926z m52.90645631-431.44095348a51.72813789 51.72813789 0 0 0-51.49247531-51.43355896 51.72813789 51.72813789 0 0 0-51.43355898 51.43355896c0 28.22070373 23.21285525 51.49247532 51.43355898 51.49247395a51.25681135 51.25681135 0 0 0 51.43355898-51.49247395zM840.51491919 190.16677132999996V763.24148767a28.57419897 28.57419897 0 0 1-28.86877789 28.86877926 28.57419897 28.57419897 0 0 1-28.92769559-28.86877926v-573.19254901a108.93545356 108.93545356 0 0 1-80.36125321-104.98808947c0-59.97636133 48.60559698-109.2889488 109.23003247-109.28894741a108.93545356 108.93545356 0 0 1 109.28894881 109.28894741c0.7069905 50.07849431-33.81771277 92.32117677-80.36125459 104.98808947z m-28.22070371-156.5394811a51.72813789 51.72813789 0 0 0-51.43355899 51.43355896c0 28.27962006 23.27177022 51.49247532 51.43355899 51.49247532 28.27962006 0 51.49247532-23.27177022 51.49247529-51.43355898a51.72813789 51.72813789 0 0 0-51.49247529-51.4924753z"  horiz-adv-x="1024" />
      
      <glyph glyph-name="very-taxis" unicode="&#58984;" d="M582.838857 187.172571a21.723429 21.723429 0 0 0-22.125714 22.089143V544.731429a22.125714 22.125714 0 1 0 44.251428 0v-335.469715a22.674286 22.674286 0 0 0-22.125714-22.089143zM685.421714 420.132571a21.211429 21.211429 0 0 0-15.579428 6.656l-102.4 102.4a21.942857 21.942857 0 0 0 15.469714 37.376 21.906286 21.906286 0 0 0 15.469714-6.4l102.4-102.4a21.357714 21.357714 0 0 0 0-30.976 22.454857 22.454857 0 0 0-15.36-6.656z m-268.507428-232.96a21.76 21.76 0 0 0-22.089143 22.089143V544.731429a22.125714 22.125714 0 0 0 44.251428 0v-335.469715a22.674286 22.674286 0 0 0-22.162285-22.089143zM416.914286 187.172571a21.211429 21.211429 0 0 0-15.469715 6.619429l-102.4 102.4a21.942857 21.942857 0 1 0 30.866286 31.122286l102.4-102.4a22.089143 22.089143 0 0 0-15.469714-37.595429l0.073143-0.146286z"  horiz-adv-x="1024" />
      
      <glyph glyph-name="very-pipeline" unicode="&#58985;" d="M866.389333 762.112H157.610667a23.381333 23.381333 0 0 1-23.722667-23.04 23.381333 23.381333 0 0 1 23.722667-22.656h165.333333V166.4a87.68 87.68 0 0 1 82.858667-91.818667h227.2a92.8 92.8 0 0 1 68.736-65.664 94.549333 94.549333 0 0 1 114.474666 65.664 91.434667 91.434667 0 0 1-68.736 111.701334 94.848 94.848 0 0 1-115.2-65.962667H417.493333a46.72 46.72 0 0 0-47.402666 46.08v228.906667h262.954666a92.842667 92.842667 0 0 1 68.736-65.664 94.890667 94.890667 0 0 1 115.2 65.664 91.306667 91.306667 0 0 1-68.778666 111.701333 94.890667 94.890667 0 0 1-115.2-65.664H370.090667V716.416h496.341333a23.381333 23.381333 0 0 1 23.722667 22.698667 23.338667 23.338667 0 0 1-23.722667 23.04zM724.778667 143.36a46.08 46.08 0 1 0-47.445334-45.696 46.421333 46.421333 0 0 0 47.445334 45.696z m0 320.725333a45.738667 45.738667 0 1 0-47.445334-45.696 46.165333 46.165333 0 0 0 47.445334 45.696z"  horiz-adv-x="1024" />
      
      <glyph glyph-name="very-service" unicode="&#58986;" d="M860.43306667 262.84942187V507.15306667c33.54168853 6.00746667 60.57528853 37.54666667 60.57528853 73.0908448a72.81777813 72.81777813 0 0 1-73.09084373 73.09084373 73.728 73.728 0 0 1-54.0672-25.0311104l-208.75946667 116.64497707a62.80533333 62.80533333 0 0 1 4.00497707 21.02613333 72.81777813 72.81777813 0 0 1-73.09084374 73.0908448 74.18311147 74.18311147 0 0 1-73.0908448-73.0908448c0-6.00746667 2.00248853-12.5155552 2.00248854-19.02364373L236.65777813 627.8030218700001c-16.52053333 16.52053333-35.54417813 27.0336-56.0696896 27.0336a72.81777813 72.81777813 0 0 1-73.09084373-73.09084374c0-35.54417813 25.03111147-64.58026667 58.5728-73.0908448v-246.30613333c-33.54168853-8.51057813-58.5728-37.54666667-58.5728-73.0908448a72.81777813 72.81777813 0 0 1 73.09084373-73.09084373 73.728 73.728 0 0 1 54.0672 25.0311104l210.76195627-116.64497707a70.08711147 70.08711147 0 0 1-6.00746667-29.0360896 72.81777813 72.81777813 0 0 1 73.09084374-73.09084373 74.18311147 74.18311147 0 0 1 73.0908448 73.09084373c0 10.51306667-2.00248853 21.02613333-6.00746667 31.03857813l210.7619552 114.64248854c14.5180448-14.5180448 33.54168853-25.03111147 56.0696896-25.0311104a72.81777813 72.81777813 0 0 1 73.09084373 73.09084373c1.50186667 38.54791147-23.5292448 67.584-59.07342186 73.59146667z m-302.37582187-208.25884374c-8.51057813 6.00746667-16.52053333 10.51306667-25.03111147 12.5155552v185.7308448h-35.54417813v-185.7308448c-10.51306667-2.00248853-21.02613333-8.51057813-29.03608853-14.5180448l-214.76693334 119.1480896c2.00248853 6.00746667 2.00248853 12.5155552 2.00248854 19.02364374a74.18311147 74.18311147 0 0 1-54.0672 71.08835626V509.1555552c12.5155552 4.00497813 23.02862187 8.51057813 31.03857813 19.0236448l156.19413333-96.11946667 19.0236448 29.03608854-156.69475626 96.11946666c2.00248853 8.51057813 4.00497813 14.5180448 4.00497813 23.02862294 0 6.00746667-2.00248853 12.5155552-2.00248853 19.02364373L461.93777813 717.91502187c12.5155552-14.5180448 33.54168853-23.02862187 54.0672-23.02862187 21.02613333 0 39.5491552 8.51057813 52.0647104 23.02862187l208.75946667-119.14808854c-2.00248853-6.00746667-2.00248853-12.5155552-2.00248853-19.0236448 0-8.51057813 2.00248853-14.5180448 4.00497813-23.02862186l-156.19413333-96.11946667 19.02364373-29.03608853 154.1916448 94.11697706c8.51057813-8.51057813 19.0236448-14.5180448 31.03857813-19.02364373v-247.808c-31.03857813-8.51057813-52.06471147-37.54666667-52.06471146-71.08835627 0-6.00746667 0-12.5155552 2.00248853-16.52053333l-218.7719104-116.64497707zM444.91662187 313.91288853000003a95.80088853 95.80088853 0 0 1 135.66862293 0 95.80088853 95.80088853 0 0 1 0 135.66862294 95.80088853 95.80088853 0 0 1-135.66862293 0 95.80088853 95.80088853 0 0 1 0-135.66862294z"  horiz-adv-x="1024" />
      
      <glyph glyph-name="very-versionmana" unicode="&#58989;" d="M512.042667 7.594667a101.973333 101.973333 0 0 0-66.389334 23.466666l-375.338666 319.914667c-34.474667 29.44-37.034667 75.989333-5.845334 108.202667l231.850667 237.397333C314.282667 715.008 340.693333 725.333333 368.64 725.333333h286.549333c27.861333 0 54.272-10.666667 72.277334-28.757333l231.850666-237.397333c31.573333-32.213333 29.013333-78.506667-5.888-108.202667l-374.954666-319.914667a101.973333 101.973333 0 0 0-66.389334-23.466666zM368.64 675.925333c-10.666667 0-20.906667-4.053333-27.861333-11.264L108.8 427.306667c-12.117333-12.202667-11.008-30.336 2.218667-41.6l375.296-319.616c6.997333-5.973333 15.786667-9.088 25.685333-9.088a39.466667 39.466667 0 0 1 25.685333 9.088l375.296 319.914666c13.226667 11.264 14.336 29.098667 2.218667 41.6l-231.850667 237.354667a38.357333 38.357333 0 0 1-27.904 11.264H368.64v-0.298667zM498.517333 322.602667l-151.509333 136.618666a15.786667 15.786667 0 0 0-3.84 19.456c6.4 11.093333 21.802667 12.586667 30.592 4.693334l124.8-112.512a20.48 20.48 0 0 1 26.752 0l124.8 112.512a20.224 20.224 0 0 0 30.506667-4.693334c3.84-6.4 2.133333-14.336-3.754667-19.456l-151.552-136.618666a20.48 20.48 0 0 0-26.752 0z"  horiz-adv-x="1024" />
      
      <glyph glyph-name="very-time" unicode="&#58990;" d="M512 782.222222C292.408889 782.222222 113.777778 603.591111 113.777778 384s178.631111-398.222222 398.222222-398.222222 398.222222 178.631111 398.222222 398.222222-178.631111 398.222222-398.222222 398.222222z m0-739.271111A341.504 341.504 0 0 0 170.951111 384 341.447111 341.447111 0 0 0 512 725.048889 341.504 341.504 0 0 0 853.048889 384 341.504 341.504 0 0 0 512 42.95111099999997zM654.222222 384H512V583.054222a28.444444 28.444444 0 1 1-56.888889 0V355.555556c0-15.815111 12.686222-28.444444 28.444445-28.444445h170.666666a28.444444 28.444444 0 1 1 0 56.888889z"  horiz-adv-x="1024" />
      
      <glyph glyph-name="very-depipe" unicode="&#58991;" d="M195.488 306.88a15.04 15.04 0 0 0 8.832-8.384l6.4-15.424a14.912 14.912 0 0 0-0.544-11.648l-25.536-41.76a25.824 25.824 0 0 1 3.008-29.856l21.632-21.6c7.52-6.688 20.8-7.904 29.472-2.656l41.76 25.536a14.72 14.72 0 0 0 12.16 0.32l15.392-6.336c3.136-1.088 7.072-5.44 7.84-8.64l11.488-47.616a26.432 26.432 0 0 1 22.4-19.328s6.336-0.608 15.84-0.608 15.84 0.608 15.872 0.608a26.4 26.4 0 0 1 22.4 19.328l11.456 47.616a15.04 15.04 0 0 0 8.32 8.8l15.456 6.4a15.936 15.936 0 0 0 11.648-0.544l41.728-25.536a25.664 25.664 0 0 1 29.856 3.008l21.632 21.632a25.728 25.728 0 0 1 2.656 29.472l-25.536 41.76a15.136 15.136 0 0 0-0.32 12.16l6.336 15.36a14.944 14.944 0 0 0 8.64 7.872l47.616 11.456a26.432 26.432 0 0 1 19.328 22.4s0.576 6.368 0.576 15.872-0.576 15.84-0.576 15.84a26.432 26.432 0 0 1-19.328 22.4l-47.584 11.456a15.072 15.072 0 0 0-8.864 8.352l-6.4 15.424a14.912 14.912 0 0 0 0.576 11.648l25.536 41.76a25.824 25.824 0 0 1-3.04 29.856l-21.6 21.6a26.56 26.56 0 0 1-29.504 2.656L450.784 512a14.72 14.72 0 0 0-12.16-0.32l-15.424 6.368a14.88 14.88 0 0 0-7.808 8.64l-11.488 47.584a26.464 26.464 0 0 1-22.4 19.36c-0.032-0.032-6.4 0.544-15.904 0.544-9.472 0-15.84-0.576-15.84-0.576a26.432 26.432 0 0 1-22.4-19.328l-11.456-47.584a15.072 15.072 0 0 0-8.352-8.832l-15.424-6.4A16.032 16.032 0 0 0 280.48 512l-41.728 25.536a26.208 26.208 0 0 1-29.856-3.008l-21.632-21.6a25.696 25.696 0 0 1-2.624-29.504l25.536-41.728a15.136 15.136 0 0 0 0.32-12.16l-6.368-15.424a14.912 14.912 0 0 0-8.64-7.84l-47.616-11.456a26.432 26.432 0 0 1-19.328-22.4c0.032 0-0.544-6.336-0.544-15.84s0.576-15.84 0.576-15.872a26.464 26.464 0 0 1 19.36-22.4l47.552-11.456zM146.24 356.544c0 8.352 0.512 14.016 0.512 14.208a8.512 8.512 0 0 0 5.44 6.272l47.584 11.456c9.216 2.24 18.528 10.688 21.44 19.136l5.888 14.4c4.16 8.544 3.584 21.056-1.376 29.184l-25.536 41.728c-1.216 2.016-0.864 6.08 0.32 7.424l20.864 20.864c1.664 1.472 5.92 1.856 7.808 0.704l41.76-25.536c7.904-4.832 21.472-5.184 28.672-1.6l14.4 5.952c8.96 3.072 17.408 12.384 19.648 21.632l11.424 47.584a8.512 8.512 0 0 0 6.304 5.44c0.16 0 5.824 0.48 14.208 0.48 8.352 0 14.016-0.48 14.176-0.512a8.48 8.48 0 0 0 6.304-5.408l11.456-47.584c2.24-9.216 10.656-18.56 19.136-21.44l14.4-5.92c8.32-4.096 21.28-3.456 29.184 1.376l41.728 25.536c1.92 1.152 6.4 0.544 7.424-0.32l20.864-20.864c1.6-1.76 1.92-5.76 0.704-7.808l-25.536-41.76c-4.96-8.096-5.536-20.64-1.6-28.64l5.952-14.4c3.072-8.96 12.384-17.44 21.632-19.648l47.584-11.456a8.512 8.512 0 0 0 5.44-6.272c0-0.192 0.48-5.856 0.48-14.208 0-8.384-0.512-14.016-0.512-14.208a8.512 8.512 0 0 0-5.44-6.304l-47.584-11.456c-9.216-2.24-18.528-10.656-21.44-19.136l-5.888-14.4c-4.16-8.512-3.584-21.056 1.376-29.152l25.536-41.728c1.216-2.048 0.864-6.08-0.32-7.424l-20.864-20.896a7.264 7.264 0 0 0-4.608-1.44 6.336 6.336 0 0 0-3.2 0.768l-41.728 25.536c-7.904 4.8-21.44 5.152-28.672 1.6l-14.4-5.952c-8.96-3.104-17.408-12.416-19.648-21.664l-11.456-47.552a8.544 8.544 0 0 0-6.272-5.44c-0.192 0-5.856-0.512-14.208-0.512-8.384 0-14.048 0.512-14.208 0.512a8.512 8.512 0 0 0-6.304 5.44l-11.456 47.584c-2.24 9.216-10.656 18.56-19.136 21.44l-14.4 5.888a29.856 29.856 0 0 1-13.056 2.784 31.232 31.232 0 0 1-16.128-4.16l-41.728-25.536c-1.92-1.152-6.4-0.544-7.424 0.32l-20.864 20.896c-1.6 1.76-1.92 5.76-0.704 7.808l25.536 41.728c4.96 8.096 5.536 20.672 1.6 28.672l-5.952 14.4a32.896 32.896 0 0 1-21.632 19.648l-47.584 11.456a8.512 8.512 0 0 0-5.44 6.272c0 0.192-0.48 5.824-0.48 14.208zM365.6 256.032a100.64 100.64 0 0 1 100.544 100.544 100.64 100.64 0 0 1-100.544 100.512 100.64 100.64 0 0 1-100.512-100.512A100.64 100.64 0 0 1 365.6 256z m0 182.784a82.368 82.368 0 0 0 82.24-82.24 82.368 82.368 0 0 0-82.24-82.24 82.368 82.368 0 0 0-82.24 82.24 82.336 82.336 0 0 0 82.24 82.24z m264.64 167.904a7.744 7.744 0 0 0-4.736-2.528l-34.016 0.32a21.184 21.184 0 0 1-19.264-13.632s-1.504-4.256-3.136-10.784c-1.632-6.528-2.336-10.976-2.336-10.976a21.216 21.216 0 0 1 10.688-21.216l29.984-15.712c1.6-1.216 2.688-3.008 3.04-4.992l1.696-11.616a7.808 7.808 0 0 0-1.536-5.12l-24.16-23.68a20.8 20.8 0 0 1-3.488-24l10.944-18.272a21.12 21.12 0 0 1 22.496-7.84l33.344 10.208c1.824 0 3.616-0.704 4.64-1.504l9.408-6.944c1.376-1.248 2.272-2.912 2.56-4.736l-0.32-33.856c-0.096-8.32 5.76-16.704 13.6-19.424 0 0 4.256-1.504 10.784-3.168 6.528-1.632 10.976-2.336 10.976-2.336a21.376 21.376 0 0 1 21.216 10.688l15.744 29.984a7.936 7.936 0 0 0 4.992 3.04l12.096 1.76a8 8 0 0 0 4.608-1.6l23.68-24.128c5.76-5.888 15.456-8 24-3.488l18.24 10.944a20.704 20.704 0 0 1 7.872 22.496l-10.112 32.32a7.904 7.904 0 0 0 1.44 5.664l6.944 9.408a7.744 7.744 0 0 0 4.736 2.56l34.016-0.352a21.152 21.152 0 0 1 19.264 13.632s1.472 4.256 3.136 10.784c1.632 6.528 2.336 10.976 2.336 10.976a21.184 21.184 0 0 1-10.688 21.216l-29.984 15.744a7.968 7.968 0 0 0-3.04 4.992l-1.664 11.552a7.808 7.808 0 0 0 1.504 5.12l24.192 23.68a20.8 20.8 0 0 1 3.456 24l-10.944 18.304a21.184 21.184 0 0 1-22.496 7.84l-33.376-10.24a7.904 7.904 0 0 0-4.64 1.536l-9.408 6.944a7.872 7.872 0 0 0-2.528 4.736l0.32 33.856a21.152 21.152 0 0 1-13.6 19.424s-4.288 1.504-10.816 3.168c-6.496 1.632-10.976 2.336-10.976 2.336a21.376 21.376 0 0 1-21.216-10.688l-15.712-30.016a7.968 7.968 0 0 0-4.992-3.04l-12.128-1.728a8 8 0 0 0-4.576 1.6l-23.68 24.128a20.32 20.32 0 0 1-24 3.488l-18.304-10.944a20.704 20.704 0 0 1-7.84-22.496l10.112-32.32a7.904 7.904 0 0 0-1.44-5.664l-6.912-9.408z m14.976-10.464l6.272 8.544a25.344 25.344 0 0 1 4.544 22.464l-10.08 32.256c-0.096 0.512 0.32 1.664 0.224 1.696l17.312 10.368 2.08-0.32 23.68-24.16c4.224-4.256 11.136-7.04 17.664-7.04a17.28 17.28 0 0 1 3.712 0.32l10.528 1.6a25.44 25.44 0 0 1 19.04 12.672l15.712 29.984a3.392 3.392 0 0 0 2.208 1.088c0.192 0 3.936-0.64 9.376-1.984 5.44-1.376 8.992-2.592 9.152-2.656 0.576-0.256 1.408-1.44 1.44-2.016l-0.32-33.856a25.28 25.28 0 0 1 10.368-19.904l8.48-6.272c5.664-4.768 15.36-6.784 22.464-4.544l32.448 10.112c0.768 0 1.6-0.48 1.504-0.256l10.368-17.312c0.224-0.48 0-1.696-0.32-2.08l-24.16-23.68a25.152 25.152 0 0 1-6.72-21.376l1.568-10.528c0.64-7.52 5.984-15.552 12.704-19.04l29.984-15.712c0.64-0.576 1.024-1.344 1.12-2.208a117.088 117.088 0 0 0-4.672-18.56c-0.256-0.544-1.44-1.376-2.016-1.408l-34.048 0.32a25.344 25.344 0 0 1-19.712-10.368l-6.24-8.48a25.28 25.28 0 0 1-4.544-22.464l10.08-32.288c0.096-0.48-0.32-1.664-0.224-1.696l-17.312-10.368-2.08 0.32-23.68 24.16a25.824 25.824 0 0 1-17.664 7.04 17.344 17.344 0 0 1-3.744-0.32l-10.496-1.568a25.472 25.472 0 0 1-19.072-12.672l-15.68-29.984a3.36 3.36 0 0 0-2.208-1.12 115.68 115.68 0 0 0-9.376 1.984 110.176 110.176 0 0 0-9.184 2.688c-0.576 0.224-1.376 1.408-1.408 2.016l0.32 33.824a25.28 25.28 0 0 1-10.368 19.904l-8.48 6.272a25.312 25.312 0 0 1-22.496 4.544l-32.416-10.08c-0.8 0-1.664 0.416-1.536 0.224l-10.368 17.344c-0.192 0.448 0 1.664 0.32 2.048l24.16 23.68a25.152 25.152 0 0 1 6.72 21.408l-1.568 10.496a25.408 25.408 0 0 1-12.704 19.04l-29.952 15.68a3.456 3.456 0 0 0-1.12 2.24c0 0.192 0.64 3.904 1.984 9.376 1.376 5.44 2.592 8.992 2.656 9.152a3.328 3.328 0 0 0 2.016 1.44l34.048-0.32a25.344 25.344 0 0 1 19.712 10.336zM731.2 484.512c30.208 0 54.816 24.608 54.816 54.848 0 30.208-24.608 54.816-54.848 54.816-30.208 0-54.816-24.608-54.816-54.816 0-30.24 24.608-54.848 54.816-54.848z m0 91.392a36.608 36.608 0 0 0 0-73.12 36.608 36.608 0 0 0 0 73.12z"  horiz-adv-x="1024" />
      
      <glyph glyph-name="very-template" unicode="&#58992;" d="M972.241455 102.074182V789.178182a56.925091 56.925091 0 0 1-57.064728 57.018182H229.469091a57.018182 57.018182 0 0 1-57.018182-57.018182v-65.163637a1.442909 1.442909 0 0 0-1.442909-1.442909H107.752727A57.018182 57.018182 0 0 1 50.734545 665.553455v-685.754182a56.971636 56.971636 0 0 1 57.018182-57.064728H793.6a56.971636 56.971636 0 0 1 57.018182 57.064728v65.163636c0 0.791273 0.651636 1.396364 1.442909 1.396364h64.791273a55.761455 55.761455 0 0 1 55.389091 55.714909zM217.134545 798.021818c0 1.954909 1.629091 3.444364 3.49091 3.444364h701.905454c2.699636 0 4.980364-2.234182 4.980364-4.933818v-700.509091a4.980364 4.980364 0 0 0-4.933818-4.887273h-70.656a1.442909 1.442909 0 0 0-1.489455 1.489455l2.094545 572.183272a57.018182 57.018182 0 0 1-57.018181 57.064728L218.624 722.571636a1.489455 1.489455 0 0 0-1.489455 1.442909v74.007273z m585.076364-830.370909H100.398545a4.933818 4.933818 0 0 0-4.933818 4.887273V673.047273c0 2.653091 2.187636 4.887273 4.933818 4.887272l702.603637-0.698181c2.653091 0 4.933818-2.234182 4.933818-4.933819l-2.141091-701.114181a3.490909 3.490909 0 0 0-3.490909-3.584zM456.192 538.112a55.482182 55.482182 0 0 1-53.527273 55.389091H247.156364a55.482182 55.482182 0 0 1-53.620364-55.389091v-139.310545c0-30.673455 24.901818-55.575273 55.575273-55.575273H400.756364a55.575273 55.575273 0 0 1 55.575272 55.575273V538.065455H456.145455z m-44.590545-146.711273a3.444364 3.444364 0 0 0-3.49091-3.444363H241.664a3.444364 3.444364 0 0 0-3.444364 3.444363V545.512727c0 2.001455 1.582545 3.444364 3.444364 3.444364h166.353455c1.954909 0 3.444364-1.582545 3.444363-3.444364v-154.065454h0.139637z m290.536727 146.711273a55.482182 55.482182 0 0 1-53.620364 55.389091h-91.508363a55.482182 55.482182 0 0 1-53.573819-55.389091v-445.952c0-30.673455 24.901818-55.575273 55.528728-55.575273h87.645091a55.528727 55.528727 0 0 1 55.528727 55.575273V538.112z m-44.590546-453.352727a3.490909 3.490909 0 0 0-3.490909-3.490909h-102.4a3.444364 3.444364 0 0 0-3.490909 3.490909V545.373091c0 1.954909 1.582545 3.444364 3.444364 3.444364h102.353454c1.954909 0 3.444364-1.582545 3.444364-3.444364v-460.706909h0.139636z m-198.469818 147.083636a55.482182 55.482182 0 0 1-53.620363 55.389091H249.902545a55.482182 55.482182 0 0 1-53.620363-55.389091v-139.357091c0-30.673455 24.901818-55.575273 55.575273-55.575273h151.598545a55.575273 55.575273 0 0 1 55.528727 55.575273V231.796364h0.093091zM414.254545 85.085091a3.444364 3.444364 0 0 0-3.444363-3.490909H244.456727a3.490909 3.490909 0 0 0-3.165091 2.141091 3.444364 3.444364 0 0 0-0.279272 1.349818v154.065454c0 1.954909 1.629091 3.444364 3.444363 3.444364h166.353455c2.001455 0 3.444364-1.629091 3.444363-3.490909v-154.065455z"  horiz-adv-x="1024" />
      
      <glyph glyph-name="very-testing1" unicode="&#58993;" d="M529.621333-85.333333h-5.12C329.301333-82.56 170.581333 78.464 170.666667 273.621333c0 68.565333 19.413333 135.168 56.106666 192.725334a360.106667 360.106667 0 0 0 145.621334 130.005333 34.517333 34.517333 0 0 1 19.157333 30.848V853.333333h276.053333v-226.176c0-13.098667 7.594667-25.258667 19.285334-30.976a359.68 359.68 0 0 0 145.493333-129.962666 357.802667 357.802667 0 0 0 56.064-192.64 356.266667 356.266667 0 0 0-106.922667-255.573334A356.352 356.352 0 0 0 529.621333-85.333333zM446.72 798.122667v-170.965334a90.026667 90.026667 0 0 0-50.133333-80.512 301.781333 301.781333 0 0 1-170.666667-273.066666c-0.085333-165.12 134.229333-301.397333 299.306667-303.701334a301.397333 301.397333 0 0 1 217.6 87.424 301.482667 301.482667 0 0 1 90.453333 216.277334 301.909333 301.909333 0 0 1-170.581333 272.981333A90.197333 90.197333 0 0 0 612.437333 627.2V798.122667H446.72zM370.218667 172.373333a243.498667 243.498667 0 0 0-77.141334 12.928 318.293333 318.293333 0 0 0-114.346666 68.821334l38.997333 39.082666c0.426667-0.341333 38.826667-38.016 94.464-56.064 71.082667-23.04 137.6-4.224 197.802667 56.021334 93.354667 93.312 187.648 104.576 250.325333 97.621333 68.053333-7.552 113.92-37.674667 115.797333-38.997333l-30.592-45.909334c-5.973333 3.84-149.546667 95.146667-296.448-51.797333-62.293333-62.336-125.013333-81.706667-178.858666-81.706667zM750.421333 798.122667H308.736a27.605333 27.605333 0 1 0 0 55.210666h441.685333a27.605333 27.605333 0 1 0 0-55.210666z"  horiz-adv-x="1024" />
      
      </font>
</defs>
</svg>
